<svg width="67" height="46" viewBox="0 0 67 46" fill="none" xmlns="http://www.w3.org/2000/svg">
<rect x="0.311523" y="0.199219" width="66" height="45" rx="4" fill="white"/>
<path fill-rule="evenodd" clip-rule="evenodd" d="M10.9874 15.9517C11.0108 15.9516 11.0363 15.9511 11.0638 15.9507C11.6058 15.9416 12.9303 15.9193 13.5074 17.8449C13.9159 19.2079 14.5666 21.4407 15.4596 24.5431H15.8232C16.7808 21.2723 17.4387 19.0396 17.7967 17.8449C18.3728 15.9226 19.7614 15.9415 20.4347 15.9506C20.4775 15.9512 20.5175 15.9517 20.5542 15.9517L25.2818 15.9517V30.491H20.4633V21.9228H20.1402L17.4541 30.491H13.8287L11.1426 21.9164H10.8195V30.491H6.00098V15.9517L10.9874 15.9517ZM32.2011 15.9517V24.5263H32.5855L35.8529 17.4755C36.4872 16.0724 37.839 15.9517 37.839 15.9517H42.5019V30.491H37.5827V21.9164H37.1983L33.995 28.9672C33.3607 30.364 31.9449 30.491 31.9449 30.491H27.282V15.9517H32.2011ZM54.278 26.16C56.6637 26.16 58.8185 24.7833 59.5047 22.8609H44.4414V30.491H49.1192V26.16H54.278Z" fill="#40A548"/>
<path d="M54.5038 15.9512H44.1963C44.4416 19.1881 47.2612 21.9591 50.1801 21.9591H59.8299C60.3868 19.2689 58.4698 15.9512 54.5038 15.9512Z" fill="#1291D0"/>
</svg>
