<svg width="222" height="72" viewBox="0 0 222 72" fill="none" xmlns="http://www.w3.org/2000/svg">
<g clip-path="url(#clip0_8802_1755)">
<path d="M39.688 35.219C39.7924 35.1677 39.8904 35.1044 39.98 35.0306C40.6985 34.6538 41.4384 34.3193 42.1959 34.0285C42.8143 33.7886 43.5701 33.5488 44.4375 33.3004C44.6007 32.3582 44.8326 31.3389 45.1246 30.2854C45.4166 29.2318 45.8289 27.81 46.3699 26.0027V25.8742H48.3367L52.193 24.2382C52.4163 24.144 52.6654 24.0326 52.9231 23.9041C53.027 23.8591 53.1251 23.8015 53.2151 23.7328C53.2151 23.6643 53.2151 23.6557 53.155 23.6472C53.0721 23.639 52.9887 23.639 52.9059 23.6472H51.8065L50.0888 23.7157C49.4962 23.7157 48.9379 23.7757 48.3711 23.7842H47.2288H46.9797L47.057 23.5444C47.5552 22.0083 48.1049 20.2952 48.7061 18.4052L50.4238 12.9918C50.9734 11.2787 51.4029 9.83975 51.7464 8.70912C52.1844 7.20158 52.2532 6.87609 52.2617 6.81613C52.2773 6.62195 52.3118 6.42975 52.3648 6.24226C52.4163 6.01099 52.485 5.7369 52.5538 5.38572L52.6139 5.13732C52.7084 4.73474 52.7942 4.28078 52.8629 3.78398C52.9279 3.33858 52.9623 2.88929 52.966 2.43922C52.966 2.31073 52.966 2.10517 52.966 1.83107C52.966 1.55698 52.966 1.27432 52.8973 0.974532C52.877 0.72096 52.8161 0.472266 52.7169 0.237908C52.6396 0.0580344 52.5709 0.0066383 52.5452 0.0066383C52.5056 -0.00221277 52.4645 -0.00221277 52.4249 0.0066383L51.9268 0.255036C51.0951 0.616261 50.2329 0.902908 49.3502 1.11158C49.025 1.16751 48.7078 1.26242 48.4055 1.39424C48.1212 1.56046 47.8706 1.77835 47.6668 2.03664C46.373 3.43954 45.1573 4.91215 44.0253 6.44783C42.9087 7.95534 41.7922 9.59135 40.6929 11.3216C39.5935 13.0518 38.4427 14.979 37.2574 16.9919C36.0722 19.0047 34.7925 21.3174 33.4269 23.7671L33.3754 23.8613H29.3559C27.913 23.8613 26.3241 23.8613 24.6322 23.8014L19.5735 23.6814C17.8557 23.6814 16.138 23.5872 14.5835 23.5187C13.0289 23.4502 11.5088 23.356 10.126 23.2532C8.74322 23.1504 7.5494 23.0305 6.64759 22.902C6.36417 22.8249 6.04639 22.7564 5.67708 22.6707C5.37542 22.6008 5.06761 22.5607 4.75809 22.5508C4.61464 22.5504 4.47424 22.592 4.35442 22.6707C4.20519 22.7563 4.06923 22.863 3.95077 22.9876C3.49727 23.3395 3.02413 23.6655 2.53364 23.9641C2.03698 24.2287 1.51284 24.4383 0.970518 24.5894L0 24.8806C0 24.8806 0 24.8806 0 25.0005C0 25.1204 0.0515317 25.2061 0.644151 25.9941C1.21724 26.7292 1.84298 27.422 2.51646 28.0669C3.43761 28.9577 4.40365 29.801 5.41083 30.5937C6.5862 31.5126 7.83257 32.3375 9.13829 33.0606C10.5026 33.8265 11.9414 34.4521 13.4326 34.9278C14.9657 35.4154 16.5644 35.6666 18.1735 35.673C19.4493 35.6519 20.7203 35.5115 21.9697 35.2533C23.4984 34.9319 24.9812 34.4226 26.3842 33.7372C27.9998 32.9498 29.5115 31.9658 30.8847 30.8079C32.4506 29.4767 33.7956 27.907 34.8698 26.1568L34.9213 26.0798H35.0158L42.0499 25.9513L39.2929 34.9535C39.2468 35.0497 39.2234 35.1552 39.2242 35.2619V35.3047H39.2672C39.4113 35.2998 39.5535 35.2709 39.688 35.219ZM31.9583 26.3795C31.5975 27.1247 31.1595 27.9556 30.67 28.8378C30.1521 29.7478 29.52 30.5882 28.789 31.3389C28.0162 32.1349 27.1166 32.7977 26.1266 33.3004C25.0071 33.8548 23.7688 34.1282 22.5194 34.097C21.6236 34.0656 20.7325 33.9538 19.8569 33.7629C18.6315 33.4966 17.4349 33.1122 16.284 32.6152C14.8433 31.9889 13.4633 31.2319 12.1615 30.3539C10.5783 29.2794 9.10798 28.0483 7.7727 26.6793L7.47209 26.3795L32.13 26.114L31.9583 26.3795ZM36.6562 23.75L36.8108 23.4844C37.2574 22.7221 37.8415 21.7114 38.5973 20.3752L40.8475 16.3666L43.0462 12.4265V12.3751C43.7848 11.056 44.3602 10.0539 44.8068 9.29157C45.0387 8.8633 45.3135 8.39217 45.6657 7.89538C46.0178 7.39859 46.3012 6.88466 46.6362 6.37074C46.9712 5.85681 47.2889 5.39428 47.6497 4.89749C48.0104 4.40069 48.3282 3.99812 48.6202 3.64694L49.0238 3.15871L48.9379 3.78398C48.7901 4.82743 48.5633 5.85823 48.2594 6.86754C47.9417 7.92965 47.6153 8.97465 47.2889 9.98536C47.1515 10.4479 46.7049 11.8869 45.9921 14.1482C45.2792 16.4094 44.197 19.6386 42.8143 23.6558L42.7713 23.7757H42.6425L36.6562 23.75Z" fill="#003D59"/>
<path d="M76.1384 34.3379C76.9972 34.0124 78.2598 33.5242 79.8057 32.9075V32.6762C79.2829 32.8296 78.7439 32.9216 78.1996 32.9503L77.2807 33.0017H76.7224C76.4649 32.9785 76.2128 32.9149 75.9752 32.8133C75.7159 32.6946 75.4891 32.5153 75.3139 32.2908C75.117 31.9883 75.0208 31.6316 75.039 31.2715C75.0409 31.1018 75.0581 30.9327 75.0906 30.7661C75.1674 30.4718 75.2709 30.1852 75.3998 29.9096L77.8819 23.9138C78.0209 23.6091 78.1442 23.2974 78.2512 22.9802C78.3254 22.7007 78.3629 22.4127 78.3628 22.1236C78.3354 21.8009 78.1957 21.4979 77.9678 21.2671C77.7739 21.095 77.5463 20.9651 77.2994 20.8855C77.0525 20.8059 76.7916 20.7783 76.5335 20.8046C75.87 20.8321 75.2174 20.9832 74.6096 21.25C73.8517 21.5705 73.1196 21.9485 72.4195 22.3806C71.6933 22.8294 70.991 23.3154 70.3153 23.8367C69.6797 24.325 69.0957 24.8046 68.5976 25.2415L68.0479 25.7126L69.1816 22.8174C69.2439 22.6657 69.2899 22.5077 69.319 22.3463C69.3273 22.2237 69.3273 22.1006 69.319 21.978C69.3334 21.739 69.2701 21.5017 69.1387 21.3014C69.0263 21.1423 68.8716 21.0177 68.692 20.9416C68.5236 20.8647 68.3438 20.8155 68.1596 20.796H67.7301C66.5954 20.8924 65.493 21.222 64.4922 21.7639C62.7394 22.7061 61.1502 23.9237 59.7856 25.3699L59.2446 25.901L59.485 25.1815C59.5538 24.9845 59.6912 24.6504 59.9145 24.1451L60.5844 22.6204C60.7905 22.1493 61.0482 21.5583 61.366 20.856V20.8046L61.0396 20.8817L60.0089 21.1472L58.9268 21.4384C58.5832 21.5412 58.3428 21.6012 58.2053 21.6354L57.0716 21.9438C57.0215 21.96 56.9759 21.988 56.9386 22.0251C56.9012 22.0624 56.8733 22.1078 56.8569 22.1579L52.2019 34.7491C52.1507 34.8538 52.1187 34.967 52.1074 35.0831V35.2801L52.4252 35.203L53.3614 34.9632L54.5122 34.6463C54.9245 34.5349 55.268 34.4321 55.5686 34.3379C55.7505 34.2833 55.9062 34.1646 56.0067 34.0039C56.1011 33.8326 56.2815 33.4214 56.5391 32.779C57.0888 31.5028 57.6299 30.2608 58.1538 29.1045C58.6088 28.0781 59.1251 27.0798 59.6998 26.1151C60.1425 25.3614 60.7086 24.6868 61.3745 24.1194C61.9143 23.6467 62.6059 23.3822 63.3242 23.3742C63.5189 23.3565 63.715 23.3845 63.8969 23.4558C64.0789 23.5273 64.2416 23.6401 64.372 23.7853C64.5705 24.027 64.6797 24.3294 64.6812 24.6419C64.6307 25.0838 64.5181 25.5162 64.3462 25.9267L63.5732 27.9653C63.2726 28.7447 62.9291 29.5584 62.5512 30.3978C62.1733 31.2372 61.8211 32.051 61.5377 32.7447L60.7648 34.5777C60.6465 34.839 60.546 35.108 60.4641 35.3829L61.031 35.2201L62.3107 34.8604L63.6935 34.475C64.1315 34.3379 64.4235 34.2523 64.5523 34.1837C64.6538 34.1497 64.7413 34.0835 64.8014 33.9953C64.9326 33.7167 65.0473 33.4307 65.1449 33.1388C65.4971 32.1709 65.9093 31.143 66.3817 29.9953C66.8329 28.9182 67.358 27.8737 67.9534 26.8689C68.4649 25.9899 69.0885 25.1809 69.8086 24.462C70.0937 24.1574 70.4379 23.9138 70.8203 23.7459C71.2027 23.5781 71.6153 23.4895 72.033 23.4855C72.219 23.4741 72.4053 23.5017 72.5799 23.5667C72.7545 23.6316 72.9134 23.7323 73.0465 23.8624C73.256 24.0728 73.3787 24.3541 73.39 24.6504C73.3563 25.0795 73.2488 25.4996 73.0722 25.8924L70.8907 31.6141C70.737 31.9854 70.6163 32.3695 70.53 32.7619C70.4835 32.9615 70.4577 33.1651 70.4527 33.37C70.4127 33.663 70.4494 33.9614 70.5592 34.2361C70.6691 34.5108 70.8484 34.7524 71.0797 34.9375C71.4725 35.1969 71.9312 35.3396 72.4023 35.3486C72.5836 35.3504 72.7647 35.336 72.9434 35.3058C73.1324 35.3058 73.4845 35.1859 73.9569 35.0488C74.4292 34.9118 75.2022 34.6805 76.1384 34.3379Z" fill="#003D59"/>
<path d="M101.269 35.4172C101.957 35.4061 102.643 35.32 103.313 35.1602C104.098 34.9806 104.872 34.7546 105.632 34.4836C106.379 34.218 107.109 33.9439 107.787 33.627C108.466 33.3101 108.93 33.1559 109.325 32.976V32.642C108.261 32.9282 107.163 33.0694 106.061 33.0617H105.451C105.202 33.0363 104.957 32.9816 104.721 32.899C104.457 32.8049 104.225 32.6387 104.051 32.4193C103.848 32.1489 103.747 31.8148 103.768 31.4771C103.806 30.9663 103.91 30.4626 104.077 29.9782C104.275 29.3186 104.524 28.5734 104.824 27.7683C105.125 26.9631 105.443 26.1751 105.795 25.3357C106.147 24.4963 106.447 23.8111 106.714 23.2286L107.135 22.3721C107.289 22.0637 107.427 21.7639 107.555 21.5155C107.684 21.2671 107.796 20.9673 107.873 20.7446C107.932 20.6078 107.972 20.4638 107.993 20.3164C107.993 20.2564 107.993 20.2393 107.993 20.2393L107.701 20.3335L107.203 20.4962L107.04 20.5562C106.791 20.6333 106.568 20.7104 106.353 20.796L105.881 20.9673C105.681 21.0278 105.477 21.0765 105.271 21.113L104.36 21.31C104.084 21.364 103.812 21.4355 103.545 21.5241L103.261 21.6269L96.1755 30.2865L97.0343 20.1793H96.9399C96.8943 20.1694 96.848 20.1694 96.8025 20.1793C96.6822 20.2222 96.3473 20.3335 95.7632 20.5048C95.1792 20.6761 94.5694 20.8903 93.951 21.113L92.6542 21.5755C92.6542 21.5755 91.4002 23.9909 90.842 25.1044C90.3026 26.1827 89.6979 27.2269 89.0298 28.2308C88.3547 29.2535 87.5963 30.219 86.7624 31.1173C86.0555 31.9148 85.1735 32.5391 84.1858 32.9418H84.1257H84.0569C83.7101 32.7836 83.4282 32.5115 83.2583 32.1709C83.0336 31.791 82.893 31.3675 82.8459 30.9289C82.7965 30.4817 82.8434 30.029 82.9834 29.6013C83.111 29.2109 83.3647 28.8735 83.7048 28.6419L83.5245 28.3422C82.9434 28.6155 82.3959 28.9547 81.8927 29.3529C81.3723 29.7546 80.9174 30.2343 80.5442 30.7747C80.2061 31.2739 79.9562 31.8273 79.8057 32.4107C79.6475 32.9709 79.6475 33.5637 79.8057 34.1238C79.8325 34.437 79.952 34.7352 80.1492 34.9803C80.3011 35.1545 80.5013 35.2797 80.7246 35.3401C80.9643 35.4093 81.2144 35.4354 81.4633 35.4172C81.7075 35.4051 81.9496 35.3649 82.1847 35.2973C82.7839 35.1078 83.3601 34.852 83.9024 34.5349C84.5623 34.19 85.1623 33.7418 85.6802 33.2073C86.2496 32.6714 86.783 32.0991 87.2777 31.4942C87.7758 30.8604 88.3083 30.1323 88.8408 29.3272C89.3733 28.522 89.9573 27.6141 90.5585 26.5006C91.1597 25.3871 91.7781 24.2479 92.5425 22.7918L93.0235 21.8496L92.8775 22.8946C92.6112 24.7618 92.4223 26.6376 92.3192 28.4963C92.2324 30.1686 92.0607 31.8353 91.8039 33.49C91.7455 33.8388 91.7051 34.1905 91.6836 34.5435C91.675 34.7791 91.6347 35.0126 91.5634 35.2373C91.5634 35.3487 91.6407 35.3829 91.7695 35.3829C91.8984 35.3829 92.1045 35.3829 93.075 34.4407C93.7964 33.7384 94.6467 32.8304 95.6 31.7341C96.5534 30.6377 97.6098 29.4128 98.7607 28.0252C99.9115 26.6376 101.019 25.2757 102.042 23.9738L102.772 23.0487L99.9716 30.415C99.8085 30.8775 99.6625 31.3914 99.4993 31.991C99.361 32.5113 99.2863 33.0462 99.276 33.5842C99.2803 34.1084 99.4907 34.61 99.8617 34.9815C100.233 35.3529 100.734 35.5647 101.26 35.5714L101.269 35.4172Z" fill="#003D59"/>
<path d="M126.365 22.0119C126.182 22.0119 125.769 22.0119 125.128 22.0119H125.033L124.982 21.9348C124.741 21.6239 124.471 21.3371 124.174 21.0783C123.754 20.7286 123.218 20.5509 122.671 20.5815C122.458 20.5783 122.244 20.6014 122.036 20.65C121.626 20.7666 121.228 20.9156 120.842 21.0954C120.562 21.205 120.275 21.2965 119.983 21.3695L119.296 21.5408C118.515 21.7036 117.999 21.8235 117.759 21.9006C117.518 21.9777 117.51 22.0976 117.51 22.149C117.51 22.2004 117.51 22.2946 117.724 22.4402C117.884 22.5472 118.054 22.639 118.231 22.7143L118.6 22.8599L118.248 23.0398C117.3 23.5289 116.385 24.0782 115.508 24.6843C114.657 25.2795 113.873 25.966 113.172 26.7315C112.516 27.4597 111.969 28.2791 111.549 29.164C111.139 30.0465 110.93 31.0092 110.939 31.9821C110.907 32.4562 110.978 32.9319 111.148 33.3757C111.319 33.8196 111.584 34.221 111.927 34.5517C112.64 35.1704 113.559 35.5005 114.504 35.4767C115.857 35.4404 117.184 35.0977 118.386 34.4746C119.785 33.7979 121.061 32.8949 122.165 31.8022C123.267 30.7074 124.167 29.4255 124.819 28.0163C125.449 26.6823 125.688 25.1972 125.506 23.7336V23.6394L125.566 23.5794C125.779 23.3607 125.972 23.1227 126.141 22.8685C126.306 22.6766 126.413 22.442 126.45 22.1918C126.468 22.0548 126.468 22.0205 126.365 22.0119ZM120.825 32.0506C120.586 32.6041 120.187 33.0741 119.679 33.4006C119.172 33.727 118.577 33.8952 117.973 33.8836C117.467 33.9002 116.965 33.7787 116.522 33.5324C116.167 33.3052 115.874 32.9969 115.663 32.633C115.45 32.2555 115.305 31.8439 115.234 31.4167C115.149 31.0023 115.106 30.5805 115.105 30.1576C115.109 29.3732 115.242 28.5948 115.5 27.8535C115.738 27.1481 116.039 26.4657 116.402 25.815C116.726 25.2044 117.115 24.6301 117.561 24.1019C117.92 23.6791 118.314 23.2866 118.738 22.9284L118.832 22.8599L118.944 22.9113C119.365 23.1377 119.825 23.283 120.301 23.3396H120.352H120.395C120.745 23.6281 121.022 23.995 121.203 24.4102C121.377 24.8102 121.512 25.2262 121.606 25.6522C121.682 26.0251 121.731 26.403 121.752 26.7829C121.752 27.1255 121.752 27.3824 121.752 27.5537C121.805 29.1049 121.487 30.6462 120.825 32.0506Z" fill="#003D59"/>
<path d="M140.106 21.0274C139.62 20.8276 139.103 20.7145 138.578 20.6934C137.143 20.7246 135.735 21.0759 134.455 21.7212C131.525 23.1069 129.091 25.3549 127.481 28.1624C126.746 29.399 126.341 30.8026 126.304 32.2395C126.281 32.6839 126.368 33.127 126.557 33.5301C126.746 33.9332 127.03 34.2842 127.387 34.5522C128.348 35.1859 129.492 35.4868 130.642 35.4087C131.456 35.4211 132.269 35.358 133.072 35.2203C133.888 35.1004 134.79 34.9462 135.649 34.7492C136.508 34.5522 137.418 34.338 138.268 34.0982H138.397L140.63 33.4644V33.1817C139.824 33.339 139.01 33.4533 138.191 33.5243C137.335 33.6138 136.475 33.6595 135.615 33.6614C133.777 33.6614 132.54 33.3102 131.853 32.5907C131.508 32.231 131.24 31.8062 131.063 31.3414C130.886 30.8764 130.804 30.381 130.822 29.884C130.859 28.5414 131.181 27.2219 131.767 26.0125C132.159 25.2042 132.646 24.4452 133.218 23.7512C133.9 22.935 134.706 22.2299 135.606 21.6613L135.726 21.5842L135.829 21.6869C136.06 21.9291 136.26 22.1997 136.422 22.4921C136.652 22.9873 136.753 23.5324 136.714 24.0767C136.714 24.6399 136.596 25.1968 136.37 25.7127C136.147 26.2053 135.762 26.6071 135.28 26.8519L135.391 27.126C136.061 26.8861 136.705 26.6206 137.332 26.338C137.974 26.06 138.584 25.7155 139.153 25.3101C139.642 24.9612 140.069 24.5326 140.416 24.0424C140.73 23.5617 140.891 22.9975 140.879 22.4236C140.927 22.1381 140.877 21.8448 140.736 21.5914C140.596 21.338 140.374 21.1393 140.106 21.0274Z" fill="#003D59"/>
<path d="M145.818 45.2937C146.264 45.1652 146.677 45.0281 147.132 44.8825C147.587 44.7369 147.922 44.5913 148.248 44.4543C148.411 44.392 148.564 44.3084 148.704 44.2059L151.864 35.5548H151.993C153.505 35.5376 155.006 35.2744 156.433 34.7754C157.77 34.3191 159.025 33.6541 160.152 32.8053C161.194 32.0263 162.07 31.0479 162.729 29.9273C163.333 28.8852 163.659 27.7052 163.674 26.5012C163.683 25.7108 163.564 24.9239 163.321 24.1714C163.107 23.5119 162.834 22.8727 162.505 22.2613C162.262 21.8036 161.974 21.3704 161.647 20.9679C161.509 20.8001 161.363 20.6399 161.209 20.4883H161.011C160.482 20.5192 159.968 20.6716 159.508 20.9337C158.899 21.2447 158.225 21.4061 157.541 21.4048H156.983L162.085 7.4517C162.265 7.10908 162.402 6.83499 162.523 6.59516C162.643 6.35533 162.634 6.38959 162.669 6.3125L162.325 6.38959L161.398 6.62943L160.41 6.89496H160.272L159.749 7.02343C158.958 7.19474 158.529 7.28896 158.374 7.34035C158.322 7.35407 158.274 7.37983 158.234 7.41554C158.194 7.45125 158.162 7.49592 158.142 7.54593L153.487 20.591H152.869C151.245 20.5588 149.63 20.8501 148.12 21.4476C146.745 21.9988 145.485 22.7972 144.401 23.8031C143.421 24.7044 142.63 25.7902 142.073 26.998C141.557 28.0632 141.326 29.2436 141.403 30.4241C141.434 31.065 141.594 31.6931 141.873 32.2713C142.151 32.8495 142.544 33.366 143.026 33.7903C143.988 34.6469 145.663 35.1008 148.008 35.2379H148.248L144.933 44.5656C144.831 44.8144 144.767 45.0772 144.744 45.3451C144.743 45.365 144.743 45.3851 144.744 45.405C145.106 45.4153 145.467 45.3779 145.818 45.2937ZM156.828 21.7731L157.017 21.893C157.843 22.4105 158.501 23.1538 158.915 24.0343C159.3 24.8757 159.497 25.7906 159.491 26.7153C159.475 27.6816 159.292 28.6379 158.95 29.5419C158.597 30.4883 158.095 31.3729 157.464 32.1629C156.825 32.959 156.049 33.6349 155.171 34.1586C154.286 34.6858 153.294 35.0078 152.268 35.1008H151.984L156.828 21.7731ZM146.29 32.3428C145.916 31.409 145.732 30.4102 145.749 29.4048C145.756 28.4429 145.918 27.4885 146.23 26.5783C146.555 25.6486 147.034 24.7799 147.647 24.0086C148.272 23.2298 149.045 22.5834 149.923 22.1071C150.866 21.6118 151.915 21.3475 152.981 21.3362H153.247L148.523 34.5527L148.334 34.467C147.404 34.0349 146.673 33.2663 146.29 32.3171V32.3428Z" fill="#003D59"/>
<path d="M179.227 21.2318C178.547 20.7926 177.742 20.588 176.934 20.6493C175.416 20.6546 173.916 20.9847 172.537 21.6172C171.121 22.2704 169.814 23.1371 168.663 24.1868C167.564 25.1697 166.635 26.3275 165.915 27.613C165.253 28.7298 164.891 29.9988 164.867 31.2961C164.864 31.8351 164.969 32.3691 165.177 32.8664C165.386 33.3638 165.692 33.8144 166.078 34.1912C166.606 34.6443 167.219 34.9888 167.88 35.2049C168.542 35.4209 169.241 35.5044 169.935 35.4503C171.55 35.4305 173.156 35.1972 174.71 34.7566C176.428 34.3026 178.042 33.8401 179.597 33.369V33.0949C178.873 33.2969 178.131 33.4261 177.381 33.4803C176.754 33.4803 176.299 33.5231 176.041 33.5231H175.079C174.529 33.4974 173.982 33.42 173.447 33.2919C172.804 33.1433 172.173 32.9486 171.558 32.7094C170.886 32.4644 170.279 32.0722 169.78 31.5617L169.591 31.3732L169.866 31.1933C170.948 30.7394 172.09 30.234 173.258 29.6858C174.442 29.1362 175.57 28.4736 176.625 27.7072C177.606 27.0153 178.445 26.1432 179.099 25.1376C179.606 24.4063 179.903 23.5501 179.957 22.6622C179.962 22.3825 179.898 22.1058 179.771 21.8564C179.643 21.6071 179.457 21.3926 179.227 21.2318ZM175.139 25.3603C174.831 26.1106 174.433 26.821 173.954 27.476C173.424 28.2202 172.801 28.8938 172.099 29.4803C171.359 30.0947 170.528 30.5891 169.634 30.9449L169.454 31.022L169.393 30.825C169.333 30.5938 169.273 30.3625 169.222 30.1312C169.168 29.826 169.144 29.5161 169.153 29.2062C169.157 28.2922 169.293 27.3835 169.557 26.5081C169.81 25.6567 170.168 24.8397 170.622 24.0755C171.02 23.3825 171.544 22.7695 172.168 22.2682C172.681 21.8222 173.334 21.5679 174.014 21.5487C174.222 21.5452 174.427 21.5854 174.619 21.6666C174.809 21.7477 174.981 21.8681 175.122 22.0198C175.438 22.4075 175.594 22.9004 175.56 23.3988C175.542 24.0729 175.399 24.7379 175.139 25.3603Z" fill="#003D59"/>
<path d="M178.119 45.5924L178.48 45.5067C178.738 45.4467 179.021 45.3697 179.339 45.2669C179.657 45.1641 179.957 45.0784 180.258 45.0013L180.842 44.8386C181.123 44.732 181.41 44.6404 181.701 44.5645C181.913 44.5223 182.116 44.4441 182.302 44.3332L184.999 36.119L187.575 34.8942H194.704L195.262 34.6201L196.568 33.9948C197.049 33.7635 197.478 33.5408 197.839 33.3353L198.148 33.164H190.418L191.045 32.8299C191.818 32.4188 192.651 31.922 193.519 31.3567C194.37 30.7927 195.161 30.1441 195.88 29.4209C196.582 28.6962 197.163 27.8632 197.598 26.954C198.065 25.9515 198.297 24.8559 198.277 23.7506C198.327 23.3473 198.29 22.9379 198.168 22.5505C198.044 22.163 197.839 21.8068 197.564 21.5064C197.085 21.1004 196.475 20.8786 195.846 20.8812C195.245 20.8846 194.648 20.9947 194.085 21.2067C193.485 21.4327 192.91 21.7197 192.368 22.0632C191.809 22.4148 191.272 22.8009 190.762 23.2195C190.238 23.6564 189.783 24.0761 189.362 24.4358L188.915 24.8469L189.07 24.2559C189.07 24.1275 189.207 23.802 189.396 23.2623C189.551 22.8593 189.641 22.4343 189.662 22.0032C189.662 21.1981 189.327 21.0782 189.224 21.0439C188.947 20.9452 188.658 20.8819 188.365 20.8555C187.395 20.8555 186.029 21.4893 184.32 22.7399C183.744 23.1605 183.196 23.6183 182.68 24.1103L182.766 24.4529C183.065 24.1827 183.439 24.0095 183.839 23.9561C183.982 23.9448 184.124 23.9764 184.248 24.0466C184.372 24.1168 184.471 24.2226 184.535 24.3502C184.646 24.5738 184.702 24.8203 184.698 25.0696C184.669 25.7173 184.559 26.3588 184.372 26.9797C184.14 27.8363 183.899 28.6157 183.642 29.4123C183.384 30.2089 183.109 31.0312 182.843 31.725C182.577 32.4188 182.396 32.9156 182.302 33.2068V33.2667H182.25C182.06 33.3804 181.859 33.4751 181.649 33.5494L180.79 33.9177L179.983 34.2775C179.785 34.3631 179.76 34.6286 179.837 34.68C179.991 34.8041 180.155 34.9158 180.326 35.0141C180.524 35.1254 180.601 35.1597 180.79 35.2539C180.929 35.3283 181.073 35.394 181.22 35.4509L181.383 35.5109L181.323 35.6736L178.291 44.7358C178.197 44.984 178.133 45.243 178.102 45.5067C178.102 45.5067 178.111 45.5838 178.119 45.5924ZM186.115 32.907C186.648 31.3909 187.232 29.892 187.833 28.4359C188.425 27.0328 189.162 25.695 190.032 24.4444C190.322 23.9859 190.698 23.5875 191.14 23.2709C191.437 23.071 191.786 22.961 192.144 22.954C192.371 22.9373 192.599 22.9817 192.803 23.0827C193.007 23.1836 193.18 23.3374 193.304 23.5279C193.546 23.9244 193.665 24.3831 193.647 24.8469C193.653 25.786 193.495 26.719 193.184 27.605C192.904 28.4245 192.553 29.2183 192.136 29.9776C191.773 30.6433 191.353 31.2767 190.882 31.8706C190.461 32.3759 190.118 32.7871 189.834 33.0954L189.783 33.1554H186.012L186.115 32.907Z" fill="#003D59"/>
<path d="M211.151 35.4159C211.642 35.3765 212.129 35.2906 212.603 35.159C213.307 34.9877 214.08 34.7821 214.956 34.5251C215.832 34.2682 216.596 34.0455 217.369 33.8057C218.142 33.5658 218.555 33.4288 218.889 33.3346V33.0862C218.237 33.208 217.577 33.2852 216.914 33.3174H216.055H215.497C215.252 33.3011 215.012 33.2462 214.784 33.1547C214.545 33.0622 214.335 32.9085 214.174 32.7093C213.981 32.4414 213.889 32.1133 213.917 31.7842C213.963 31.35 214.076 30.9253 214.252 30.5251C214.466 29.9427 214.75 29.2831 215.11 28.5551C215.471 27.827 215.815 27.0475 216.193 26.2253C216.571 25.403 216.948 24.6321 217.292 23.9469C217.636 23.2616 217.893 22.6963 218.151 22.1653C218.287 21.9104 218.39 21.64 218.46 21.3601C218.46 21.3087 218.366 21.2059 218.091 21.1117C217.747 20.991 217.394 20.9021 217.034 20.8462C216.648 20.7777 216.27 20.7263 215.926 20.7006L215.291 20.6406C214.751 20.6611 214.215 20.7241 213.685 20.8291C212.898 20.9812 212.125 21.1989 211.374 21.48C210.516 21.7884 209.605 22.1738 208.635 22.6364C207.628 23.1242 206.666 23.6974 205.757 24.3494C204.82 25.0468 203.956 25.8391 203.181 26.7135C202.535 27.4398 201.96 28.2257 201.463 29.0604C201.065 29.7253 200.747 30.4356 200.518 31.1761C200.335 31.7295 200.234 32.3065 200.218 32.8892C200.214 33.5255 200.425 34.1445 200.819 34.6451C201.005 34.8973 201.25 35.0998 201.534 35.2344C201.817 35.3688 202.129 35.4313 202.442 35.4159C202.91 35.3887 203.372 35.3024 203.816 35.159C204.538 34.9355 205.228 34.6219 205.869 34.2254C206.744 33.6937 207.567 33.0799 208.325 32.3924C209.303 31.501 210.169 30.4944 210.902 29.3945L211.761 28.1953L211.246 29.5572C211.143 29.8227 210.997 30.1739 210.816 30.6193C210.636 31.0647 210.455 31.4759 210.275 31.9641C210.107 32.3757 209.961 32.796 209.837 33.2232C209.742 33.4998 209.684 33.7878 209.665 34.0797C209.66 34.2681 209.698 34.4552 209.775 34.6272C209.853 34.7992 209.968 34.9516 210.112 35.0733C210.412 35.2975 210.777 35.4177 211.151 35.4159ZM209.502 30.4394C208.351 32.1525 207.226 33.0605 206.153 33.0605C205.931 33.0707 205.71 33.0323 205.506 32.9479C205.301 32.8635 205.117 32.7352 204.967 32.5722C204.682 32.2324 204.535 31.7985 204.555 31.3559C204.571 30.9338 204.631 30.5146 204.735 30.1054C204.856 29.6257 204.993 29.1289 205.139 28.6321C205.285 28.1354 205.457 27.6214 205.637 27.1246L206.11 25.857C206.421 25.0227 206.896 24.2594 207.51 23.6128C208.244 22.9911 209.195 22.6834 210.155 22.7563C210.699 22.77 211.242 22.8245 211.778 22.919C212.341 23.0072 212.891 23.1595 213.419 23.373L213.599 23.4501L213.504 23.6214C211.95 26.4565 210.619 28.7521 209.502 30.4394Z" fill="#003D59"/>
<path d="M52.5454 71.6898H54.0227V54.4134H59.9746V71.6898H61.4518V53.377H52.5454V71.6898Z" fill="#003D59"/>
<path d="M73.0807 62.7218L69.6625 53.377H68.1509L72.2992 64.7432L69.5938 71.6898H70.6845L77.8131 53.377H76.7309L73.0807 62.7218Z" fill="#003D59"/>
<path d="M80.4585 54.4134H85.9982V71.6898H87.4754V54.4134H92.1047L92.9979 53.377H81.3603L80.4585 54.4134Z" fill="#003D59"/>
<path d="M161.81 54.4134H167.341V71.6898H168.826V54.4134H173.447L174.349 53.377H162.703L161.81 54.4134Z" fill="#003D59"/>
<path d="M105.133 54.4134L106.035 53.377H97.9019V71.6898H106.035L105.133 70.6448H99.3791V60.9573H104.335L105.099 59.9209H99.3791V54.4134H105.133Z" fill="#003D59"/>
<path d="M139.153 54.4134L140.055 53.377H131.921V71.6898H140.055L139.153 70.6448H133.399V60.9573H138.354L139.11 59.9209H133.399V54.4134H139.153Z" fill="#003D59"/>
<path d="M123.049 70.6448H119.322V53.377H117.836V70.6448H114.109V53.377H112.631V71.6898H124.527V53.377H123.049V70.6448Z" fill="#003D59"/>
<path d="M158.1 56.4456L158.323 56.6512L159.302 55.5291L159.062 55.3321C157.773 54.2495 156.219 53.5302 154.558 53.2486C152.897 52.9669 151.191 53.1333 149.617 53.7303C148.042 54.3274 146.656 55.3334 145.602 56.6442C144.549 57.9551 143.866 59.5231 143.624 61.1857C143.382 62.8482 143.591 64.5451 144.228 66.1004C144.865 67.6556 145.907 69.0126 147.247 70.0309C148.587 71.0493 150.176 71.6918 151.848 71.892C153.521 72.0922 155.216 71.8428 156.76 71.1695C157.589 70.7989 158.362 70.3177 159.062 69.7391L159.208 69.6106L158.898 68.4886L158.529 68.8055C158.038 69.2374 157.492 69.6032 156.906 69.8933C155.328 70.6445 153.554 70.8832 151.833 70.5759C150.111 70.2685 148.531 69.4307 147.312 68.1802C145.729 66.6346 144.806 64.5385 144.736 62.33C144.697 61.2755 144.877 60.2242 145.262 59.2415C145.648 58.2587 146.232 57.3654 146.977 56.6169C148.471 55.1999 150.444 54.3954 152.505 54.3636C154.566 54.3319 156.563 55.0751 158.1 56.4456Z" fill="#003D59"/>
<path d="M184.364 60.6248H184.261C185.003 60.1537 185.573 59.4552 185.885 58.634C186.196 57.8128 186.232 56.913 185.987 56.0698C185.742 55.2264 185.229 54.4849 184.527 53.9565C183.823 53.428 182.968 53.1411 182.088 53.1387C181.252 53.1394 180.419 53.2372 179.606 53.4299C179.472 53.4766 179.343 53.5339 179.219 53.6012L179.064 53.6869V71.7256H179.322C180.23 71.9034 181.153 71.9952 182.079 71.9997C183.443 71.995 184.764 71.5203 185.818 70.6559C186.872 69.7914 187.593 68.5906 187.861 67.2563C188.129 65.9222 187.926 64.5367 187.287 63.3344C186.648 62.1323 185.612 61.1871 184.355 60.6591L184.364 60.6248ZM182.088 60.1709H180.55V54.2436C181.06 54.1807 181.573 54.1463 182.088 54.1408C182.789 54.2709 183.423 54.642 183.88 55.1896C184.336 55.7372 184.586 56.4267 184.586 57.1387C184.586 57.8507 184.336 58.5403 183.88 59.0878C183.423 59.6354 182.789 60.0064 182.088 60.1366V60.1709ZM180.55 61.2158H182.088C183.3 61.3294 184.425 61.8898 185.244 62.7872C186.062 63.6846 186.517 64.8545 186.517 66.0682C186.517 67.2817 186.062 68.4516 185.244 69.349C184.425 70.2464 183.3 70.8068 182.088 70.9205C181.796 70.9205 180.98 70.9205 180.55 70.8691V61.2158Z" fill="#003D59"/>
<path d="M196.508 67.5013V53.377H195.022V71.6898H196.01L201.489 57.5569V71.6898H202.966V53.377H201.996L196.508 67.5013Z" fill="#003D59"/>
<path d="M217.077 51.8457H214.381L213.762 52.8821H216.459L217.077 51.8457Z" fill="#003D59"/>
<path d="M217.936 53.377L212.448 67.5013V53.377H210.962V71.6898H211.95L217.43 57.5569V71.6898H218.907V53.377H217.936Z" fill="#003D59"/>
</g>
<defs>
<clipPath id="clip0_8802_1755">
<rect width="222" height="72" fill="white"/>
</clipPath>
</defs>
</svg>
