<svg width="17" height="17" viewBox="0 0 17 17" fill="none" xmlns="http://www.w3.org/2000/svg">
<path d="M1.02741 16.6992C0.836508 16.6992 0.669466 16.6377 0.526289 16.5146C0.383112 16.3915 0.311523 16.248 0.311523 16.0838C0.311523 16.0018 0.323455 15.9197 0.347318 15.8377C0.395043 15.7351 0.478564 15.612 0.597878 15.4685L6.89764 8.5146L0.920023 1.92999C0.800713 1.7864 0.717191 1.67358 0.669466 1.59153C0.645603 1.48896 0.633672 1.39665 0.633672 1.3146C0.633672 1.1505 0.70526 1.00691 0.848435 0.883835C0.991612 0.760758 1.15866 0.699219 1.34955 0.699219H2.10123C2.33986 0.699219 2.51884 0.750501 2.63815 0.853066C2.78132 0.955626 2.90064 1.05819 2.99609 1.16076L8.36521 7.09922L13.7343 1.19153C13.8537 1.08896 13.973 0.986401 14.0923 0.883835C14.2116 0.760758 14.3906 0.699219 14.6292 0.699219H15.3451C15.536 0.699219 15.703 0.760758 15.8462 0.883835C15.9894 1.00691 16.061 1.1505 16.061 1.3146C16.061 1.39665 16.0371 1.48896 15.9894 1.59153C15.9655 1.67358 15.8939 1.7864 15.7746 1.92999L9.72539 8.60691L16.0252 15.4685C16.1445 15.612 16.2161 15.7351 16.2399 15.8377C16.2877 15.9197 16.3115 16.0018 16.3115 16.0838C16.3115 16.248 16.2399 16.3915 16.0968 16.5146C15.9536 16.6377 15.7866 16.6992 15.5956 16.6992H14.844C14.6054 16.6992 14.4144 16.648 14.2713 16.5454C14.152 16.4428 14.0446 16.3403 13.9491 16.2377L8.29362 10.0223L2.63815 16.2377C2.5427 16.3403 2.42338 16.4428 2.2802 16.5454C2.16089 16.648 1.98192 16.6992 1.74329 16.6992H1.02741Z" fill="white"/>
</svg>
