<svg width="486" height="344" viewBox="0 0 486 344" fill="none" xmlns="http://www.w3.org/2000/svg">
<path d="M137.342 428.341C180.305 380.826 242.989 342.462 309.899 357.244C316.59 358.3 322.929 360.764 329.268 363.58C334.55 366.043 339.129 369.211 343.707 372.731C351.806 380.122 355.68 387.865 359.906 397.72C360.962 400.536 361.315 403.704 361.667 406.519C361.667 412.151 361.667 418.134 359.554 423.062C359.202 424.118 358.849 425.174 358.497 426.581C356.032 430.453 353.215 433.269 350.398 436.788C343.002 443.476 331.029 446.995 321.169 444.532C315.886 443.476 310.956 440.66 306.73 437.492C306.73 437.492 307.786 438.548 307.082 437.844C303.561 434.677 300.743 430.805 298.983 426.581C295.461 417.782 295.813 408.279 300.039 402.296C304.617 396.312 312.365 393.849 318.703 393.849C325.042 393.849 329.972 396.312 332.438 398.776C334.903 401.24 335.607 403 335.959 403C335.959 402.648 335.607 400.536 333.494 397.72C331.381 394.553 326.803 389.977 319.408 388.217C312.365 386.457 301.448 386.457 292.291 394.905C283.488 403.352 279.966 417.782 283.488 431.509C285.953 438.9 289.122 445.588 294.404 451.219C299.687 456.85 307.082 461.426 314.83 464.242C331.029 469.873 350.75 467.761 366.245 455.443C373.64 449.107 379.979 442.42 383.853 433.269C388.431 424.47 389.135 414.263 389.135 404.408C388.431 399.832 388.079 394.905 386.67 390.329C381.74 376.25 375.753 364.636 364.836 354.077C350.045 340.35 332.79 334.015 315.534 330.495C241.933 315.361 168.332 364.284 137.342 428.341Z" fill="#82B68C"/>
<path d="M20.4227 510C88.3893 489.938 148.961 425.176 145.439 350.207C144.735 332.609 141.565 314.659 130.296 297.765C121.844 285.446 111.28 277.703 98.2497 270.311C94.0238 268.199 89.0936 267.144 84.5155 265.736C75.0072 263.976 64.7947 263.272 55.2864 266.088C45.7781 268.199 38.0307 273.479 30.6353 279.814C16.1968 293.189 10.5623 312.195 13.7317 329.089C15.1404 337.537 18.3098 344.928 23.24 351.263C27.818 357.247 34.1569 361.822 41.2001 365.342C54.2299 371.325 69.3727 370.269 78.881 362.526C88.3893 355.135 90.5022 344.224 89.7979 336.833C89.0936 329.089 85.572 323.81 82.7547 321.346C80.2896 319.234 78.1767 318.531 77.8245 318.179C77.8245 318.531 79.5853 319.586 81.3461 322.402C83.4591 325.218 84.8677 330.497 84.1634 336.833C83.4591 342.816 79.5854 350.207 72.8943 353.727C66.2033 356.895 56.695 355.839 48.5954 350.911C44.7216 348.448 41.5522 344.928 38.7349 341.056C38.3828 340.352 39.4393 341.76 39.0871 341.408C36.2698 336.833 34.8612 331.553 34.509 325.922C33.4526 315.715 38.7349 304.804 46.8346 298.468C50.3562 296.005 53.8777 293.541 58.1036 292.133C59.1601 291.781 60.5688 291.781 61.6252 291.429C66.9076 290.021 72.5422 291.077 78.1767 292.133C80.994 293.189 83.8112 293.893 86.6285 295.301C95.4325 301.284 102.828 306.212 108.814 315.363C111.632 320.29 114.097 325.57 115.505 330.849C117.266 337.185 118.675 343.872 118.675 350.911C122.197 419.896 73.9508 475.155 20.4227 510Z" fill="#82B68C"/>
<path d="M476.819 211.88C470.833 201.321 462.381 192.17 452.168 185.483C431.391 173.516 404.627 169.645 383.497 184.779C373.637 190.763 365.537 199.21 360.255 209.417C357.79 214.344 356.029 219.624 355.325 224.903C354.62 231.239 354.62 236.518 355.677 241.797C359.551 262.563 373.989 278.754 391.245 284.737C409.557 290.721 426.109 284.033 435.969 273.826C446.534 263.619 447.238 249.189 443.716 240.39C440.195 231.239 434.208 226.311 429.982 224.199C425.404 222.087 422.939 222.087 422.939 221.735C422.939 221.735 425.404 222.439 428.926 225.255C432.8 227.719 436.673 233.702 438.082 241.446C439.49 249.189 437.025 259.396 428.574 265.379C424.348 268.547 419.417 271.011 413.783 271.363C411.318 271.363 409.205 271.715 404.979 271.363C402.514 271.011 399.344 269.955 396.879 268.899C386.315 263.971 377.511 251.301 376.102 237.926C375.75 234.758 376.102 231.239 376.454 228.775C376.806 227.367 377.159 225.959 377.511 224.199C377.511 223.847 377.159 225.255 377.511 224.551C378.567 222.791 379.624 220.68 380.328 218.92C384.202 213.64 388.78 208.009 395.471 204.841C403.57 199.21 416.248 198.858 425.756 201.321C423.291 200.97 425.052 201.321 424.7 200.97C428.926 202.729 433.152 204.489 437.025 206.601C443.012 210.825 448.294 216.808 452.168 223.847C454.281 228.071 455.69 231.942 456.746 236.518C457.098 239.334 457.451 242.149 457.803 244.965V246.373C458.155 261.859 450.407 278.402 438.786 288.609C437.025 290.721 432.447 293.888 428.574 296.352C425.052 298.464 421.53 300.224 418.009 301.632C410.614 304.799 402.514 306.559 394.062 307.263C359.551 310.431 330.321 283.681 296.162 286.849C279.611 286.849 265.524 292.48 253.903 297.408C235.943 307.615 220.448 318.878 206.714 334.716C222.561 322.749 239.465 314.654 257.777 307.263C269.046 304.447 282.076 301.632 295.81 303.039C331.378 303.391 358.142 334.364 395.471 331.901C406.035 331.901 416.952 330.141 427.517 326.269C438.434 322.046 447.942 317.118 456.746 309.023C465.902 300.576 472.946 291.777 477.876 280.866C482.806 270.307 486.328 258.34 485.975 246.021C485.975 234.758 482.454 223.143 476.819 211.88Z" fill="#82B68C"/>
<path d="M196.856 198.862C170.092 145.012 129.945 104.888 75.0088 80.25C162.344 153.811 227.846 250.249 172.909 364.638C215.168 316.771 216.224 257.288 196.856 198.862Z" fill="#82B68C"/>
<path d="M212.701 313.599C258.482 268.899 262.356 197.45 220.801 148.527C226.788 176.685 230.661 203.082 231.366 231.943C228.196 260.1 221.505 286.146 212.701 313.599Z" fill="#82B68C"/>
<path d="M227.142 78.841C226.79 71.8017 224.677 65.8183 223.973 62.2986C220.451 62.2986 214.112 61.9467 206.717 64.4104C198.969 66.8742 190.87 73.5615 184.531 85.5283C182.066 91.8637 180.305 97.8471 179.601 103.831C179.601 109.814 179.953 115.093 181.009 119.669C182.066 125.652 184.531 130.228 187.348 134.1C186.996 156.273 190.87 176.335 198.617 197.805C194.391 175.983 193.687 156.273 197.561 135.155C207.773 126.356 217.986 115.445 222.564 102.775C227.494 94.3275 227.494 85.8803 227.142 78.841Z" fill="#82B68C"/>
<path d="M167.275 23.2267C165.162 16.5394 161.64 10.9079 160.232 7.74023C156.71 8.44416 150.724 9.85204 144.033 14.0756C136.989 18.2992 131.003 26.7464 128.185 40.121C127.481 46.8084 127.481 53.1437 128.185 58.7752C129.594 64.4066 131.355 69.6861 133.468 73.9097C136.285 79.1892 139.807 83.4127 142.976 86.5804C148.258 108.05 157.062 126.704 170.092 145.359C160.232 125.649 154.949 106.642 153.189 84.8206C160.936 73.5577 167.979 60.535 169.388 47.1603C171.501 37.6573 169.036 29.5621 167.275 23.2267Z" fill="#82B68C"/>
<path d="M78.1769 8.44715C73.5989 13.3747 70.4294 21.1179 70.7816 32.0288C71.4859 37.6603 72.8945 42.5878 74.6553 46.8113C76.7683 51.0349 79.5855 54.5546 82.0506 57.7223C85.22 61.2419 88.7417 63.7057 92.2632 65.4655C101.067 81.3039 111.632 93.9747 125.718 105.941C114.097 92.2149 105.645 78.4882 100.011 61.9459C103.884 51.3869 106.702 39.772 104.941 29.2131C104.589 21.1179 101.419 15.1345 98.6021 10.559C95.4326 5.63144 91.911 2.11179 89.7981 0C87.333 1.40786 82.755 3.87161 78.1769 8.44715Z" fill="#82B68C"/>
<path d="M172.555 340.704C172.203 317.826 168.329 298.116 160.23 277.35C161.286 272.775 161.638 267.495 160.582 261.512C159.878 256.584 158.469 251.657 156.004 246.025C153.187 241.098 149.665 235.818 145.087 230.891C134.874 221.74 125.014 218.572 116.914 219.276C108.815 219.628 103.18 222.444 100.011 223.5C100.715 227.019 101.067 233.355 103.18 240.042C105.645 246.377 108.463 254.473 115.858 260.808C125.014 270.663 138.044 276.998 151.074 281.926C161.991 300.228 168.682 318.882 172.555 340.704Z" fill="#82B68C"/>
<path d="M187.346 242.505C175.724 222.794 162.695 207.308 145.087 193.581C143.678 189.358 141.565 184.43 137.691 179.503C134.522 175.631 131 171.76 126.07 168.24C121.14 165.072 115.505 162.608 108.814 160.497C95.4324 157.681 85.2198 159.441 78.5287 164.016C71.8377 168.24 67.964 173.519 65.8511 175.983C67.964 178.799 71.8377 184.078 76.768 189.006C82.0503 193.229 88.3892 198.861 98.2496 200.621C110.927 204.844 125.718 203.788 139.1 201.677C158.117 212.587 173.259 225.258 187.346 242.505Z" fill="#82B68C"/>
<path d="M82.7557 117.905C79.9384 115.09 76.4169 111.922 71.8388 109.81C67.9651 108.05 63.7392 106.291 58.809 105.235C53.8788 104.531 48.2442 104.531 42.2575 105.587C30.6363 108.402 23.241 113.682 19.7194 119.665C15.8456 125.649 15.1413 130.928 14.437 133.744C17.2543 135.152 22.1845 137.967 27.819 139.727C33.4536 141.135 40.4967 143.247 48.9485 141.135C60.5698 139.727 71.8388 133.392 81.3471 126.705C100.011 128.112 116.563 132.688 134.171 140.783C117.972 129.872 101.772 122.481 82.7557 117.905Z" fill="#82B68C"/>
<path d="M71.136 78.486C70.0796 74.2624 67.6144 66.8711 61.9799 60.8877C59.1626 57.72 55.641 54.5524 51.4151 51.7366C47.1892 49.2729 41.9069 47.1611 36.2723 45.7533C24.6511 43.9934 15.8472 46.1052 10.2126 50.3288C4.57809 54.2004 1.76079 59.1279 0 61.5917C2.11295 64.0554 5.63457 68.279 10.2126 72.1506C15.1428 75.6703 20.7774 79.8939 29.2292 81.3017C42.6112 85.1733 58.1062 82.3576 71.136 78.486Z" fill="#82B68C"/>
<path d="M318.703 234.053C321.168 232.998 323.633 232.998 325.746 233.702C327.859 234.405 329.62 236.165 330.324 238.981C330.676 240.389 330.676 241.797 330.676 243.557C330.324 245.316 329.62 247.076 328.563 248.836C324.337 256.579 309.195 272.418 290.53 276.993C301.799 263.267 309.195 246.372 312.716 240.037C313.421 238.629 314.477 237.221 315.534 236.165C316.238 235.461 317.294 234.757 318.703 234.053Z" fill="#82B68C"/>
<path d="M351.806 263.269C354.272 263.973 356.385 265.381 357.441 267.493C358.497 269.605 358.85 272.068 357.793 274.532C357.089 275.94 356.385 276.996 354.976 278.052C353.567 279.108 352.159 280.164 350.046 280.867C341.946 284.387 320.112 286.499 302.856 278.404C320.464 275.236 336.664 266.789 343.355 263.973C345.115 263.269 346.524 262.917 347.933 262.917C348.989 262.565 350.398 262.917 351.806 263.269Z" fill="#82B68C"/>
<path d="M245.454 112.979C247.215 113.683 248.976 114.739 250.737 116.499C252.497 118.259 253.906 120.371 255.315 123.186C260.597 134.097 265.527 164.366 255.667 189.356C249.68 165.07 236.65 142.896 232.424 134.097C231.368 131.986 230.664 129.522 230.664 127.762C230.311 125.65 230.311 123.89 230.664 122.13C231.368 118.611 233.481 115.795 235.946 114.035C238.411 112.275 241.58 111.572 245.454 112.979Z" fill="#82B68C"/>
<path d="M321.521 170.702C321.169 161.903 320.112 153.456 318.351 145.361C316.591 137.265 314.125 129.874 310.956 122.835C302.856 103.829 289.474 84.4707 270.81 74.2637C273.627 112.98 276.092 150.64 270.458 189.004C264.119 227.368 258.484 256.23 235.946 297.058C239.82 293.186 244.75 287.906 249.68 281.923C256.724 273.476 263.767 262.917 270.458 251.302C273.627 245.319 276.797 238.983 279.262 232.648C280.67 229.48 281.727 225.961 283.136 222.793C284.192 219.273 285.248 216.106 286.305 212.586C288.066 205.547 289.474 198.507 290.179 191.82C290.531 190.06 290.531 188.3 290.883 186.541C290.883 184.781 291.235 183.021 291.235 181.261C291.587 177.741 291.587 174.574 291.587 171.054C291.939 167.886 291.587 164.367 291.587 161.199C291.587 158.031 291.587 154.864 291.235 151.696C291.235 148.528 290.883 145.713 290.531 142.897C290.179 140.081 290.179 137.265 289.827 134.45C288.77 129.17 288.418 124.243 287.714 120.019C287.009 115.796 286.305 111.924 285.601 108.756C284.192 102.421 283.488 98.9012 283.488 98.9012L284.544 98.5493C284.544 98.5493 286.305 101.717 289.122 107.7C290.531 110.516 291.94 114.388 293.7 118.611C294.757 120.723 295.461 123.187 296.165 125.651C296.87 128.114 297.574 130.578 298.278 133.394C299.687 139.025 301.096 145.009 301.8 151.344C302.152 153.104 302.152 154.512 302.504 156.272C302.504 158.031 302.856 159.791 302.856 161.199C303.209 164.719 303.209 168.238 302.856 171.758C302.856 175.278 302.504 178.797 302.152 182.669C301.8 184.429 301.8 186.189 301.448 188.3C301.096 190.06 300.743 191.82 300.391 193.932C298.983 201.323 297.222 208.714 294.757 215.754C293.7 219.273 292.292 222.793 290.883 226.313C289.474 229.832 288.066 233.352 286.305 236.52C283.136 243.207 279.614 249.542 276.092 255.526C272.219 261.509 268.697 267.141 264.471 272.068C260.597 276.996 256.724 281.571 252.85 285.795C247.92 291.074 243.694 295.298 239.82 298.817C274.332 287.203 300.743 257.286 313.421 223.849C316.591 215.754 318.704 206.955 320.112 198.155C321.169 188.3 321.873 179.149 321.521 170.702Z" fill="#82B68C"/>
</svg>
