<svg width="230" height="194" viewBox="0 0 230 194" fill="none" xmlns="http://www.w3.org/2000/svg">
<path d="M59.8033 85.5859C61.8216 85.068 63.9116 84.4128 65.9236 84.2412C72.3714 83.9415 78.2515 84.3936 84.297 87.2039C92.4731 90.9532 97.6983 97.0046 102.016 103.455C120.437 130.734 112.546 168.9 91.5566 192.006C103.79 166.595 109.21 134.827 91.9934 109.925C90.3775 107.333 88.3373 105.218 86.2971 103.103C84.388 101.407 82.3354 99.9842 80.1392 98.8364C75.8126 96.7496 71.9382 96.4721 67.2997 96.3195C65.9802 96.5036 64.6607 96.6877 63.4067 97.0808C61.036 97.9387 58.5935 98.9339 56.9684 100.706C56.6159 101.046 56.2634 101.386 55.7019 101.791C54.5665 103.295 53.8429 105.014 52.9102 106.798C51.4505 110.928 51.9779 116.272 54.6139 119.921C55.8961 121.815 57.8052 123.512 59.8641 124.588C60.0013 124.66 59.2433 124.438 59.5896 124.444C61.3739 125.377 63.3734 125.898 65.451 125.935C69.606 126.01 73.3804 124.138 75.1615 121.399C76.9426 118.66 76.5931 114.983 75.4607 112.468C74.3282 109.954 72.5563 108.329 71.1838 107.612C69.8112 106.894 68.9097 106.947 68.9097 106.947C69.1187 106.882 69.8829 106.757 71.4707 107.063C73.0585 107.368 75.7381 108.594 77.6286 111.33C79.5908 113.928 81.2411 118.46 79.4882 123.486C77.5263 128.577 72.1922 132.43 65.8755 133.147C62.4067 133.431 59.2249 133.166 55.99 132C52.8269 130.696 49.748 128.562 47.374 125.749C42.2798 120.115 40.0772 111.624 42.5131 103.286C43.7639 99.2214 45.5636 95.4437 48.6642 92.5207C51.8428 89.1142 55.8979 87.0397 59.8033 85.5859Z" fill="#333333" fill-opacity="0.16"/>
<path d="M155.921 156.796C163.675 157.005 171.614 158.533 179.008 163.446C184.414 167.145 187.932 171.781 191.015 177.586C191.951 179.473 192.468 181.491 193.124 183.581C193.879 187.82 194.216 192.191 193.03 196.464C192.054 200.672 189.914 204.098 187.017 207.301C181.221 213.709 172.724 216.258 165.406 214.879C161.747 214.19 158.446 212.814 155.505 210.753C152.772 208.625 150.881 205.89 149.272 202.951C146.673 197.224 147.138 190.651 150.4 186.415C153.663 182.179 158.458 181.365 161.639 181.63C165.03 181.829 167.357 183.395 168.443 184.661C169.463 185.719 169.725 186.555 169.791 186.764C169.653 186.692 169.182 185.922 168.019 185.139C166.718 184.284 164.444 183.62 161.668 183.916C159.029 184.284 155.744 185.888 154.166 188.907C152.796 191.862 153.205 196.095 155.429 199.529C156.646 201.213 158.006 202.623 159.856 203.765C160.13 203.908 159.581 203.621 159.581 203.621C161.568 204.835 163.98 205.571 166.404 205.614C170.899 206.042 175.79 203.705 178.485 200.221C179.483 198.645 180.481 197.07 181.277 195.214C181.355 194.73 181.504 194.11 181.582 193.626C182.109 191.28 181.807 188.85 181.229 186.277C180.836 185.023 180.443 183.769 179.841 182.58C177.211 178.584 174.981 175.496 170.941 172.861C168.817 171.575 166.549 170.565 164.066 169.966C161.308 169.224 158.27 168.684 155.291 168.7C125.048 167.048 100.836 188.295 85.6548 211.99C94.5066 182.016 122.973 155.303 155.921 156.796Z" fill="#333333" fill-opacity="0.16"/>
<path d="M84.7733 56.8705C84.6577 51.7422 85.0194 47.0381 87.0468 42.1562C88.8715 36.9935 91.4417 32.7448 95.0445 28.861C98.5755 25.1144 102.793 21.7266 108.024 19.7424C113.255 17.7583 118.527 17.3682 123.924 17.7423C129.177 18.391 134.268 20.3529 138.785 23.4128C147.12 29.8666 153.1 40.1573 150.405 51.3311C149.691 56.3752 147.389 61.1137 144.205 64.8664C142.579 66.6383 140.68 68.2667 138.649 69.4771C136.2 70.8186 133.967 71.7482 131.674 72.1226C122.497 73.9666 113.479 70.8257 108.325 64.637C102.832 58.0958 102.766 50.1974 105.361 44.5637C107.753 38.6492 113.552 35.9132 117.707 35.9879C121.934 35.9254 124.954 37.5037 126.588 39.0571C128.086 40.5388 128.622 41.5182 128.622 41.5182C128.622 41.5182 127.877 40.6043 126.164 39.5344C124.452 38.4645 121.485 37.7877 118.01 38.418C114.672 39.12 110.951 41.8933 109.903 46.2386C109.31 48.3754 109.195 50.9365 109.844 53.3727C110.171 54.4177 110.362 55.3909 111.304 56.9319C111.703 57.8396 112.723 58.8971 113.606 59.8827C117.353 63.4138 123.907 64.9171 129.55 63.1482C130.941 62.8268 132.273 61.9502 133.18 61.5509C133.742 61.1454 134.303 60.7399 134.865 60.3343C134.937 60.1971 134.512 60.6743 134.656 60.3998C135.224 59.648 135.929 58.968 136.425 58.3534C138.062 55.889 139.36 53.0722 139.696 49.7531C140.744 45.4077 138.689 40.3138 136.118 36.8732C136.655 37.8526 136.321 37.1539 136.386 37.3629C135.026 35.953 133.666 34.5431 132.025 33.3359C129.286 31.5549 125.914 30.3166 122.458 29.9081C120.452 29.7334 118.512 29.7678 116.565 30.1485C115.383 30.4043 114.129 30.7974 112.947 31.0532L112.457 31.3215C106.181 33.6332 100.601 39.6289 98.2675 46.0987C97.6936 47.1967 97.1665 49.5425 96.6456 51.5421C96.4055 53.3389 96.2371 54.9984 96.2059 56.7297C96.0719 60.3295 96.7677 64.0135 97.816 67.3574C102.193 82.0528 117.924 89.4016 122.236 103.888C124.953 110.726 125.044 117.239 124.944 122.779C123.744 131.763 121.726 139.97 117.421 148.206C119.72 139.796 120.216 131.492 120.162 122.901C119.491 117.832 118.487 112.064 115.673 106.749C109.767 92.3029 92.6915 86.5233 87.4316 70.8422C86.0558 66.4533 85.0324 61.7243 84.7733 56.8705Z" fill="#333333" fill-opacity="0.16"/>
<path d="M111.748 167.086C124.393 141.89 148.477 131.585 175.385 129.922C201.741 131.989 224.635 141.683 243.839 160.109C199.511 136.59 149.276 125.712 111.748 167.086Z" fill="#333333" fill-opacity="0.16"/>
<path d="M156.282 121.334C145.162 127.23 135.754 134.196 126.118 142.266C136.698 116.341 165.34 103.001 191.99 111.862C179.481 114.062 168.142 116.698 156.282 121.334Z" fill="#333333" fill-opacity="0.16"/>
<path d="M90.4988 162.271C86.0005 158.172 81.6519 153.453 79.674 147.875C77.6649 144.029 77.8707 140.292 77.855 137.313C78.0483 134.268 78.9278 131.583 79.2335 129.995C80.8275 129.954 83.532 129.795 86.9041 131.033C90.348 132.134 93.8262 135.176 96.4311 140.557C97.4201 143.345 98.1345 145.99 98.3655 148.558C98.3874 151.191 98.0693 153.471 97.6857 155.542C97.0869 158.025 95.939 160.221 94.8691 161.934C94.8321 171.701 93.0106 180.535 89.38 189.822C91.5601 180.301 92.062 171.651 90.4988 162.271Z" fill="#333333" fill-opacity="0.16"/>
<path d="M76.817 187.102C71.464 184.304 66.1234 180.813 62.6763 176.041C59.825 172.803 58.9203 169.184 58.3493 166.265C57.8501 163.208 57.8999 160.438 57.8593 158.844C59.3223 158.385 61.9675 157.67 65.4956 157.942C69.0954 158.076 73.1475 160.019 77.2217 164.595C78.9093 167.05 80.2508 169.499 81.246 171.941C81.8949 174.377 82.1976 176.807 82.2975 178.957C82.3194 181.589 81.7923 183.935 81.2059 185.726C83.7361 195.262 84.2012 204.068 83.1192 214.162C82.4637 204.383 80.6074 195.898 76.817 187.102Z" fill="#333333" fill-opacity="0.16"/>
<path d="M201.213 118.953C203.116 113.307 205.855 107.399 210.222 103.39C212.982 100.115 216.47 98.7919 219.33 97.6657C222.256 96.7485 225.032 96.4521 226.561 96.2024C227.229 97.5999 228.361 100.114 228.573 103.72C228.923 107.398 227.529 111.737 223.639 116.17C221.524 118.21 219.206 119.969 217.038 121.108C214.596 122.103 212.297 122.824 210.213 123.133C207.711 123.573 205.222 123.32 203.288 123.008C194.282 126.864 185.523 128.577 175.476 128.743C184.927 127.042 193.156 124.004 201.213 118.953Z" fill="#333333" fill-opacity="0.16"/>
<path d="M243.876 134.962C241.375 135.402 238.951 135.358 236.736 135.249C234.038 135.062 231.836 134.26 230.051 133.328C220.397 134.747 211.4 134.239 201.605 131.916C211.36 132.645 219.897 131.69 229.022 128.945C232.369 123.879 236.474 119.034 241.652 116.149C245.229 113.65 248.907 113.3 251.893 112.938C254.943 112.785 257.707 113.182 259.367 113.35C259.616 114.878 260.122 117.589 259.367 121.039C258.749 124.561 256.394 128.398 251.413 131.911C248.964 133.252 246.313 134.313 243.876 134.962Z" fill="#333333" fill-opacity="0.16"/>
<path d="M183.683 153.832C176.308 147.88 168.622 143.863 159.251 141.062C169.13 142.556 177.671 145.272 186.103 150.204C188.115 150.032 190.539 150.076 193.088 150.883C195.087 151.404 197.355 152.415 199.48 153.7C201.532 155.122 203.644 157.1 205.404 159.418C208.779 164.327 209.737 168.848 208.91 172.435C208.293 175.957 206.799 178.147 206.081 179.519C204.565 179.076 201.736 178.471 198.919 177.174C196.311 175.81 193.017 174.089 190.59 170.374C186.999 165.876 184.962 159.743 183.683 153.832Z" fill="#333333" fill-opacity="0.16"/>
<path d="M209.318 145.91C216.574 150.751 222.158 156.116 227.09 163.063C228.672 163.715 230.593 164.719 232.3 166.136C233.732 167.408 235.02 168.955 236.374 170.712C237.447 172.671 238.377 174.904 238.954 177.477C239.762 182.618 238.792 186.48 236.945 189.01C235.099 191.54 233.068 192.75 231.945 193.561C230.853 192.641 229.01 191.153 227.316 189.045C225.759 187.008 223.797 184.409 223.31 180.66C222.012 175.787 222.667 170.188 223.799 165.013C220.193 157.536 215.589 151.634 209.318 145.91Z" fill="#333333" fill-opacity="0.16"/>
<path d="M132.583 191.081C133.407 191.511 134.087 192.216 134.564 192.641C135.512 193.835 135.703 194.809 135.338 195.841C135.045 196.736 133.993 197.41 132.739 197.803C132.112 198 131.348 198.125 130.518 198.04C121.307 197.944 111.231 195.823 102.818 197.542C112.95 188.858 125.003 188.866 129.277 190.052C130.59 190.214 131.622 190.579 132.583 191.081Z" fill="#333333" fill-opacity="0.16"/>
<path d="M139.333 177.834C140.228 178.127 141.051 178.558 141.6 178.845C142.215 179.341 142.621 179.902 142.889 180.392C143.425 181.371 143.544 182.482 143.042 183.443C142.611 184.266 141.835 185.083 140.79 185.411C140.3 185.679 139.745 185.739 139.052 185.726C138.36 185.714 137.667 185.701 136.909 185.48C133.877 184.594 126.381 181.55 118.704 180.857C126.056 176.487 135.614 176.59 139.333 177.834Z" fill="#333333" fill-opacity="0.16"/>
<path d="M145.016 208.416C148.526 209.726 151.683 211.376 154.768 213.163C157.781 215.088 160.448 217.006 162.835 219.127C169.38 224.995 175.332 232.999 176.973 241.895C161.778 235.526 146.995 229.372 130.699 226.447C114.469 223.73 102.028 222.121 82.4323 225.509C84.6003 224.371 87.2517 223.31 90.3212 222.118C94.6446 220.533 99.7978 219.033 105.566 218.028C108.414 217.594 111.262 217.161 114.312 217.008C115.769 216.895 117.363 216.855 118.885 216.951C120.408 217.048 122.002 217.007 123.524 217.104C126.569 217.297 129.541 217.628 132.436 218.442C133.194 218.663 133.815 218.813 134.645 218.897C135.403 219.119 136.024 219.269 136.782 219.49C138.16 219.861 139.539 220.232 140.846 220.741C142.225 221.112 143.532 221.62 144.839 222.129C146.146 222.637 147.316 223.074 148.623 223.582C149.793 224.019 151.1 224.527 152.061 225.029C153.159 225.603 154.328 226.04 155.289 226.542C157.348 227.618 159.341 228.486 160.78 229.412C162.427 230.273 163.936 231.062 165.1 231.845C167.499 233.274 168.871 233.991 168.871 233.991L169.224 233.651C169.224 233.651 168.067 232.522 166.164 230.479C165.281 229.493 163.915 228.429 162.483 227.157C161.731 226.589 160.914 225.812 159.953 225.31C159.064 224.671 158.175 224.031 157.148 223.32C155.161 222.106 152.9 220.75 150.429 219.458C149.88 219.171 149.194 218.813 148.507 218.454C147.821 218.095 147.2 217.946 146.514 217.587C145.207 217.078 143.763 216.498 142.384 216.127C140.868 215.684 139.489 215.313 137.901 215.007C137.143 214.786 136.313 214.702 135.555 214.48C134.726 214.396 133.968 214.175 133.275 214.162C130.165 213.76 126.983 213.495 123.73 213.367C122.136 213.408 120.542 213.448 118.948 213.489C117.354 213.53 115.76 213.57 114.231 213.82C111.109 214.11 108.117 214.818 105.197 215.389C102.343 216.169 99.5607 216.812 96.981 217.735C94.4012 218.659 92.0305 219.517 89.9343 220.518C87.2111 221.716 84.9714 222.992 83.0125 224.065C92.3765 211.833 107.873 205.254 123.193 204.698C126.936 204.558 130.673 204.764 134.47 205.524C137.854 206.07 141.507 207.106 145.016 208.416Z" fill="#333333" fill-opacity="0.16"/>
<path d="M165.345 71.8981C168.832 70.5753 172.313 69.5988 175.788 68.9686C179.263 68.3383 182.595 67.9826 185.711 68.0386C194.576 68.1287 204.24 70.0343 211.347 75.4962C195.94 80.8996 180.605 86.1657 166.593 94.9193C152.647 103.882 142.337 110.901 130.141 126.545C130.943 124.343 132.168 121.663 133.747 118.644C135.899 114.526 138.822 109.937 142.228 105.426C144.068 103.243 145.98 100.922 148.095 98.8816C149.153 97.8615 150.21 96.8414 151.339 95.6841C152.534 94.7357 153.592 93.7156 154.786 92.7673C157.176 90.8706 159.63 89.1829 162.288 87.776C162.987 87.4422 163.548 87.0366 164.247 86.7028C164.946 86.369 165.645 86.0352 166.206 85.6297C167.466 84.8903 168.792 84.36 170.118 83.8296C171.306 83.2276 172.632 82.6972 173.958 82.1668C175.146 81.5648 176.4 81.1717 177.654 80.7786C178.908 80.3855 180.025 79.9206 181.279 79.5275C182.533 79.1344 183.578 78.8069 184.623 78.4793C186.85 77.8959 188.94 77.2407 190.678 76.9256C192.487 76.4732 194.087 76.0864 195.406 75.9023C198.117 75.3968 199.717 75.01 199.717 75.01L199.586 74.592C199.586 74.592 198.064 74.4953 195.229 74.2365C193.915 74.0744 192.25 74.2522 190.309 74.2866C189.271 74.2679 188.297 74.4583 187.187 74.5769C186.076 74.6954 184.966 74.814 183.784 75.0698C181.419 75.5815 178.78 75.9497 176.272 76.7359C175.645 76.9324 174.881 77.0572 174.254 77.2538C173.627 77.4503 172.928 77.7841 172.301 77.9807C170.975 78.511 169.512 78.9696 168.252 79.7089C166.855 80.3766 165.457 81.0442 164.197 81.7835C163.498 82.1173 162.865 82.6601 162.166 82.9939C161.605 83.3995 160.834 83.8705 160.273 84.2761C157.609 86.0293 155.148 88.0632 152.687 90.0972C151.42 91.1828 150.363 92.2028 149.234 93.3602C148.105 94.5175 146.975 95.6749 146.055 96.7667C143.934 99.1531 142.159 101.546 140.384 103.938C138.747 106.403 137.181 108.73 135.89 111.201C134.598 113.671 133.45 115.867 132.511 117.998C131.286 120.678 130.478 123.226 129.748 125.291C128.5 109.959 135.633 94.6396 146.56 84.0988C149.308 81.5158 152.259 79.2136 155.413 77.1921C158.566 75.1706 161.994 73.2926 165.345 71.8981Z" fill="#333333" fill-opacity="0.16"/>
</svg>
