<svg width="240" height="211" viewBox="0 0 240 211" fill="none" xmlns="http://www.w3.org/2000/svg">
<path d="M88.4448 246.116C87.7082 244.167 86.8274 242.162 86.4357 240.181C85.4293 233.805 85.2326 227.911 87.3617 221.593C90.1898 213.055 95.6305 207.196 101.568 202.196C126.657 180.889 165.459 184.538 190.732 202.862C164.13 193.495 131.959 191.598 109.1 211.447C106.701 213.338 104.823 215.598 102.945 217.858C101.468 219.942 100.28 222.139 99.3805 224.448C97.7818 228.977 97.9317 232.859 98.2897 237.486C98.6176 238.777 98.9456 240.069 99.4741 241.272C100.587 243.534 101.845 245.852 103.785 247.273C104.161 247.586 104.538 247.899 105.003 248.412C106.622 249.376 108.41 249.906 110.286 250.637C114.551 251.634 119.805 250.523 123.143 247.502C124.884 246.019 126.36 243.935 127.204 241.77C127.26 241.626 127.123 242.404 127.091 242.059C127.822 240.183 128.12 238.138 127.929 236.069C127.547 231.931 125.272 228.385 122.354 226.916C119.436 225.447 115.819 226.198 113.444 227.6C111.069 229.002 109.649 230.942 109.087 232.385C108.524 233.828 108.676 234.718 108.676 234.718C108.588 234.517 108.38 233.771 108.509 232.16C108.639 230.548 109.563 227.75 112.074 225.57C114.441 223.334 118.765 221.196 123.952 222.386C129.228 223.777 133.644 228.655 135.051 234.855C135.714 238.271 135.801 241.463 134.997 244.807C134.048 248.094 132.266 251.389 129.73 254.057C124.691 259.74 116.493 262.862 107.938 261.357C103.76 260.56 99.8076 259.187 96.5616 256.426C92.8264 253.641 90.3189 249.838 88.4448 246.116Z" fill="#333333" fill-opacity="0.16"/>
<path d="M148.664 142.754C148.019 135.023 148.666 126.965 152.737 119.076C155.82 113.297 160.04 109.29 165.471 105.588C167.244 104.451 169.193 103.714 171.199 102.833C175.329 101.617 179.636 100.802 184.014 101.51C188.304 102.018 191.944 103.769 195.446 106.297C202.452 111.353 205.919 119.519 205.353 126.944C205.07 130.657 204.065 134.089 202.339 137.239C200.525 140.189 198.014 142.369 195.27 144.291C189.863 147.504 183.279 147.764 178.71 144.987C174.141 142.209 172.805 137.533 172.719 134.341C172.544 130.949 173.845 128.464 174.984 127.246C175.923 126.116 176.725 125.764 176.926 125.675C176.87 125.82 176.156 126.373 175.505 127.615C174.799 129.002 174.388 131.335 174.988 134.062C175.644 136.645 177.599 139.733 180.773 140.97C183.86 142.007 188.023 141.135 191.192 138.547C192.732 137.153 193.984 135.646 194.916 133.682C195.028 133.393 194.803 133.97 194.803 133.97C195.791 131.862 196.258 129.384 196.035 126.971C195.965 122.456 193.106 117.851 189.346 115.555C187.671 114.736 185.995 113.917 184.063 113.331C183.574 113.306 182.94 113.226 182.451 113.201C180.062 112.935 177.679 113.503 175.185 114.359C173.982 114.888 172.779 115.416 171.663 116.145C167.981 119.198 165.156 121.755 162.98 126.06C161.937 128.312 161.181 130.677 160.859 133.211C160.424 136.034 160.222 139.113 160.565 142.072C162.246 172.313 186.025 194.044 211.245 206.53C180.479 201.025 150.8 175.666 148.664 142.754Z" fill="#333333" fill-opacity="0.16"/>
<path d="M57.1613 224.453C52.0768 225.131 47.3614 225.288 42.2862 223.81C36.9543 222.563 32.4489 220.475 28.1927 217.321C24.0809 214.223 20.2502 210.404 17.7033 205.422C15.1563 200.441 14.1893 195.244 13.9682 189.839C14.0357 184.546 15.4263 179.271 17.9714 174.445C23.4702 165.451 33.0415 158.376 44.4438 159.827C49.5358 159.982 54.4985 161.749 58.5785 164.503C60.5182 165.923 62.3455 167.632 63.7717 169.518C65.3741 171.804 66.5435 173.922 67.1676 176.16C70.0087 185.079 67.8778 194.388 62.2928 200.19C56.3949 206.369 48.5516 207.302 42.6668 205.342C36.5253 203.614 33.1687 198.151 32.7864 194.013C32.2598 189.818 33.4967 186.644 34.8611 184.848C36.1693 183.197 37.0839 182.556 37.0839 182.556C37.0839 182.556 36.2574 183.398 35.3821 185.217C34.5069 187.037 34.1602 190.06 35.1685 193.445C36.2329 196.685 39.3983 200.079 43.8326 200.643C46.0215 200.998 48.5798 200.831 50.9299 199.918C51.9326 199.478 52.879 199.182 54.3071 198.076C55.1655 197.579 56.1044 196.449 56.9871 195.463C60.0851 191.352 60.8592 184.672 58.4809 179.258C58.0087 177.91 56.991 176.683 56.4944 175.824C56.0296 175.311 55.5648 174.797 55.1001 174.284C54.9557 174.227 55.4767 174.597 55.1881 174.484C54.3785 174.003 53.6251 173.377 52.9598 172.951C50.3304 171.594 47.388 170.614 44.052 170.644C39.6178 170.08 34.7806 172.683 31.6433 175.616C32.5579 174.975 31.9001 175.384 32.1006 175.296C30.8487 176.802 29.5967 178.309 28.5772 180.073C27.1078 182.991 26.2476 186.479 26.2213 189.959C26.2682 191.972 26.5155 193.896 27.1077 195.789C27.4919 196.936 28.0204 198.139 28.4046 199.286L28.7251 199.744C31.7124 205.728 38.285 210.616 44.9719 212.224C46.1264 212.674 48.516 212.94 50.5606 213.238C52.3729 213.279 54.0409 213.264 55.7651 213.105C59.3579 212.842 62.9431 211.746 66.1516 210.337C80.277 204.371 85.8527 187.928 99.7776 182.05C106.275 178.598 112.739 177.792 118.257 177.283C127.318 177.489 135.697 178.593 144.356 181.966C135.744 180.606 127.436 181.025 118.903 182.022C113.939 183.246 108.316 184.879 103.342 188.259C89.6328 195.717 85.7645 213.324 70.7563 220.275C66.5451 222.125 61.9572 223.662 57.1613 224.453Z" fill="#333333" fill-opacity="0.16"/>
<path d="M163.745 185.531C137.312 175.731 124.424 152.925 119.813 126.363C118.972 99.9392 126.092 76.1189 142.296 55.0068C123.79 101.65 118.498 152.777 163.745 185.531Z" fill="#333333" fill-opacity="0.16"/>
<path d="M113.377 146.294C120.459 156.699 128.417 165.284 137.497 173.975C110.566 166.307 94.1596 139.305 100.039 111.843C103.6 124.034 107.466 135.015 113.377 146.294Z" fill="#333333" fill-opacity="0.16"/>
<path d="M161.294 207.18C157.714 212.102 153.501 216.942 148.175 219.521C144.573 221.941 140.836 222.147 137.877 222.49C134.829 222.632 132.063 222.053 130.451 221.924C130.236 220.344 129.78 217.673 130.641 214.185C131.357 210.641 133.997 206.85 139.059 203.67C141.723 202.38 144.273 201.38 146.8 200.868C149.414 200.557 151.715 200.622 153.816 200.776C156.35 201.098 158.659 201.998 160.479 202.873C170.191 201.837 179.172 202.677 188.801 205.265C179.098 204.144 170.446 204.596 161.294 207.18Z" fill="#333333" fill-opacity="0.16"/>
<path d="M187.477 218.049C185.284 223.677 182.401 229.369 178.037 233.319C175.132 236.509 171.634 237.806 168.795 238.694C165.812 239.526 163.053 239.781 161.473 239.997C160.856 238.593 159.855 236.042 159.737 232.506C159.475 228.913 160.961 224.672 165.062 220.12C167.317 218.173 169.603 216.57 171.921 215.313C174.272 214.4 176.654 213.832 178.779 213.497C181.393 213.186 183.783 213.452 185.627 213.838C194.827 210.275 203.529 208.845 213.681 208.812C204.033 210.538 195.804 213.315 187.477 218.049Z" fill="#333333" fill-opacity="0.16"/>
<path d="M106.073 101.894C100.252 100.623 94.0786 98.5503 89.6144 94.6502C86.0554 92.2662 84.3575 88.9453 82.9238 86.2259C81.6906 83.4184 81.0909 80.6915 80.6748 79.1997C81.9905 78.3826 84.365 76.9807 87.9259 76.3735C91.543 75.622 96.0091 76.531 100.842 79.9101C103.103 81.788 105.106 83.8983 106.476 85.928C107.734 88.2463 108.703 90.4522 109.239 92.4894C109.951 94.9277 109.973 97.4297 109.876 99.3863C114.698 107.914 117.363 116.432 118.632 126.4C115.903 117.193 111.978 109.347 106.073 101.894Z" fill="#333333" fill-opacity="0.16"/>
<path d="M117.296 57.7314C118.008 60.1696 118.231 62.5835 118.366 64.7969C118.477 67.4994 117.922 69.7765 117.191 71.6525C119.663 81.0926 120.147 90.0903 118.913 100.081C118.567 90.3058 116.68 81.9247 112.948 73.1574C107.545 70.3874 102.279 66.8396 98.8417 62.0099C95.9649 58.7283 95.2133 55.1112 94.5255 52.1838C94.0383 49.1683 94.1283 46.3777 94.1133 44.7097C95.6051 44.2937 98.2439 43.4934 101.756 43.8645C105.324 44.0913 109.397 46.0105 113.436 50.5759C115.038 52.8624 116.384 55.3812 117.296 57.7314Z" fill="#333333" fill-opacity="0.16"/>
<path d="M142.667 115.486C137.562 123.47 134.413 131.551 132.659 141.173C133.058 131.189 134.82 122.402 138.795 113.479C138.403 111.498 138.18 109.084 138.703 106.462C139.001 104.417 139.756 102.052 140.8 99.7995C141.988 97.6031 143.722 95.2866 145.832 93.2832C150.341 89.3888 154.729 87.9401 158.385 88.3674C161.954 88.5942 164.294 89.8387 165.738 90.4009C165.464 91.9564 165.173 94.8351 164.193 97.7775C163.125 100.519 161.776 103.983 158.35 106.803C154.273 110.866 148.402 113.565 142.667 115.486Z" fill="#333333" fill-opacity="0.16"/>
<path d="M131.976 90.877C135.99 83.133 140.709 76.9934 147.072 71.3279C147.546 69.6843 148.333 67.664 149.553 65.8123C150.661 64.2493 152.057 62.7987 153.654 61.2601C155.483 59.9782 157.601 58.8087 160.095 57.9522C165.116 56.5841 169.061 57.1239 171.779 58.6813C174.496 60.2388 175.922 62.1242 176.852 63.1512C176.057 64.3375 174.781 66.3335 172.871 68.2489C171.018 70.0199 168.651 72.2557 164.977 73.1515C160.277 74.9769 154.64 74.9413 149.371 74.3846C142.336 78.7907 136.976 84.0158 131.976 90.877Z" fill="#333333" fill-opacity="0.16"/>
<path d="M143.347 53.5889C142.899 51.7522 142.236 48.3357 143.096 44.8479C143.482 43.0037 144.213 41.1277 145.345 39.0755C146.565 37.2239 148.13 35.3404 149.984 33.5693C154.212 30.3965 157.941 29.3563 161.052 29.9036C164.075 30.2504 166.128 31.3823 167.37 32.0327C167.008 33.3877 166.742 35.7772 165.586 38.3185C164.486 40.7155 163.161 43.6898 160.16 45.845C155.827 50.1405 149.202 52.2133 143.347 53.5889Z" fill="#333333" fill-opacity="0.16"/>
<path d="M185.305 162.184C185.643 161.318 186.269 160.565 186.638 160.044C187.721 158.97 188.668 158.674 189.734 158.923C190.656 159.116 191.441 160.087 191.97 161.29C192.234 161.892 192.442 162.638 192.45 163.472C193.366 172.638 192.365 182.886 194.998 191.059C185.253 181.943 183.937 169.962 184.646 165.584C184.663 164.261 184.912 163.194 185.305 162.184Z" fill="#333333" fill-opacity="0.16"/>
<path d="M171.396 156.932C171.589 156.01 171.926 155.144 172.151 154.567C172.577 153.902 173.09 153.437 173.547 153.116C174.462 152.475 175.553 152.236 176.563 152.629C177.429 152.966 178.326 153.649 178.767 154.651C179.087 155.109 179.207 155.654 179.271 156.344C179.335 157.033 179.398 157.723 179.262 158.501C178.714 161.612 176.512 169.397 176.668 177.103C171.516 170.276 170.568 160.765 171.396 156.932Z" fill="#333333" fill-opacity="0.16"/>
<path d="M201.169 147.922C202.085 144.29 203.378 140.971 204.816 137.708C206.398 134.501 208.011 131.639 209.857 129.034C214.97 121.884 222.272 115.089 230.934 112.48C226.273 128.283 221.781 143.653 220.664 160.171C219.747 176.602 219.514 189.144 225.036 208.249C223.666 206.219 222.32 203.7 220.798 200.78C218.748 196.657 216.69 191.7 215.058 186.077C214.314 183.294 213.57 180.511 213.083 177.496C212.811 176.06 212.595 174.48 212.524 172.957C212.453 171.433 212.237 169.853 212.166 168.329C212.024 165.282 212.026 162.291 212.517 159.324C212.653 158.546 212.734 157.913 212.727 157.079C212.863 156.301 212.944 155.668 213.081 154.89C213.298 153.479 213.516 152.067 213.877 150.712C214.095 149.301 214.456 147.946 214.818 146.591C215.18 145.236 215.485 144.025 215.847 142.67C216.153 141.46 216.514 140.105 216.908 139.095C217.358 137.94 217.663 136.729 218.057 135.719C218.9 133.555 219.543 131.478 220.306 129.947C220.98 128.215 221.599 126.628 222.249 125.385C223.406 122.844 223.968 121.401 223.968 121.401L223.591 121.088C223.591 121.088 222.596 122.362 220.774 124.478C219.892 125.464 218.985 126.939 217.877 128.502C217.395 129.312 216.713 130.209 216.319 131.219C215.782 132.173 215.244 133.127 214.65 134.226C213.662 136.334 212.562 138.731 211.55 141.329C211.325 141.906 211.044 142.627 210.763 143.349C210.481 144.07 210.401 144.704 210.12 145.425C209.758 146.78 209.34 148.28 209.123 149.691C208.849 151.247 208.632 152.658 208.502 154.269C208.365 155.047 208.373 155.881 208.236 156.659C208.244 157.493 208.107 158.271 208.171 158.96C208.112 162.096 208.199 165.288 208.429 168.535C208.645 170.115 208.86 171.695 209.076 173.275C209.291 174.855 209.507 176.435 209.923 177.927C210.554 180.998 211.587 183.894 212.475 186.733C213.564 189.485 214.509 192.18 215.71 194.642C216.911 197.105 218.024 199.367 219.25 201.34C220.74 203.916 222.254 206.001 223.536 207.831C210.35 199.867 202.108 185.187 199.872 170.022C199.321 166.316 199.115 162.579 199.454 158.722C199.624 155.298 200.252 151.554 201.169 147.922Z" fill="#333333" fill-opacity="0.16"/>
<path d="M63.2445 142.716C61.5465 139.395 60.1934 136.043 59.1851 132.658C58.1769 129.273 57.4572 126.001 57.1705 122.897C56.286 114.076 57.1182 104.261 61.7661 96.5975C68.8296 111.317 75.7488 125.98 85.9891 138.946C96.4298 151.823 104.539 161.299 121.429 171.702C119.152 171.147 116.354 170.223 113.179 168.987C108.85 167.3 103.968 164.899 99.1098 162.009C96.7371 160.42 94.2201 158.774 91.9599 156.896C90.8298 155.957 89.6998 155.018 88.4253 154.023C87.3515 152.94 86.2214 152.001 85.1475 150.918C82.9997 148.751 81.0525 146.497 79.3621 144.01C78.9535 143.352 78.4887 142.838 78.0802 142.18C77.6716 141.523 77.263 140.865 76.7983 140.351C75.9249 139.18 75.2521 137.921 74.5793 136.661C73.8503 135.546 73.1775 134.287 72.5047 133.027C71.7756 131.912 71.2471 130.709 70.7186 129.506C70.1901 128.302 69.6054 127.244 69.0769 126.04C68.5484 124.837 68.108 123.834 67.6676 122.832C66.843 120.682 65.9621 118.677 65.458 116.984C64.8096 115.236 64.2492 113.688 63.9212 112.397C63.121 109.758 62.5606 108.21 62.5606 108.21L62.1596 108.386C62.1596 108.386 62.2308 109.91 62.2851 112.756C62.2682 114.08 62.6281 115.716 62.8754 117.64C62.971 118.675 63.2671 119.621 63.507 120.712C63.7469 121.803 63.9868 122.894 64.3709 124.041C65.1393 126.335 65.7953 128.917 66.8523 131.324C67.1165 131.925 67.3245 132.671 67.5888 133.273C67.853 133.874 68.2616 134.532 68.5259 135.134C69.1987 136.393 69.8152 137.797 70.6886 138.968C71.5057 140.284 72.3228 141.599 73.1962 142.771C73.6047 143.429 74.2138 143.998 74.6224 144.656C75.0871 145.17 75.64 145.884 76.1048 146.397C78.1401 148.852 80.4322 151.075 82.7242 153.298C83.9424 154.437 85.0725 155.376 86.3469 156.372C87.6213 157.367 88.8957 158.362 90.0821 159.157C92.6871 161.003 95.2603 162.504 97.8335 164.005C100.463 165.362 102.948 166.663 105.546 167.675C108.143 168.687 110.452 169.586 112.673 170.285C115.471 171.209 118.093 171.732 120.226 172.231C105.124 175.156 89.113 169.749 77.4353 160.047C74.566 157.599 71.9535 154.919 69.5978 152.007C67.242 149.094 64.9987 145.893 63.2445 142.716Z" fill="#333333" fill-opacity="0.16"/>
</svg>
