<svg width="40" height="40" viewBox="0 0 40 40" fill="none" xmlns="http://www.w3.org/2000/svg">
<path fill-rule="evenodd" clip-rule="evenodd" d="M36.6663 20.0007C36.6663 29.2054 29.2044 36.6673 19.9997 36.6673C10.7949 36.6673 3.33301 29.2054 3.33301 20.0007C3.33301 10.7959 10.7949 3.33398 19.9997 3.33398C29.2044 3.33398 36.6663 10.7959 36.6663 20.0007ZM23.9435 28.3543L17.2268 23.392L24.9553 16.4177C25.2945 16.1166 24.8811 15.9699 24.4308 16.2429L14.8929 22.2603L10.7731 20.9743C9.88348 20.702 9.87695 20.0906 10.9728 19.651L27.027 13.4606C27.7603 13.1277 28.4679 13.6368 28.1881 14.7591L25.454 27.6428C25.2631 28.5582 24.71 28.7773 23.9435 28.3543Z" fill="#003D59"/>
</svg>
