<svg width="40" height="40" viewBox="0 0 40 40" fill="none" xmlns="http://www.w3.org/2000/svg">
<path fill-rule="evenodd" clip-rule="evenodd" d="M19.9997 3.33398C10.7949 3.33398 3.33301 10.7962 3.33301 20.0007C3.33301 29.2051 10.7949 36.6673 19.9997 36.6673C29.2044 36.6673 36.6663 29.2051 36.6663 20.0007C36.6663 10.7962 29.2044 3.33398 19.9997 3.33398ZM20.3484 10.0195C25.0454 10.0394 27.2965 11.4152 27.8181 11.8761C29.551 13.3193 30.4339 16.7728 29.7883 21.8322C29.226 26.2504 26.1789 26.9414 25.0783 27.191L25.0782 27.191L25.0781 27.191C24.9561 27.2187 24.858 27.241 24.7899 27.2623C24.5004 27.3543 21.809 28.004 18.4262 27.7891C18.4262 27.7891 15.9051 30.7476 15.1176 31.5169C14.9946 31.6361 14.8501 31.6847 14.7536 31.6618C14.6195 31.6296 14.5823 31.4734 14.5823 31.2451C14.5845 30.9187 14.6039 27.2043 14.6039 27.2043C9.84253 25.9176 9.95309 21.1987 10.0158 18.5199C10.018 18.4279 10.0201 18.3382 10.022 18.2512C10.0775 15.6322 10.5837 13.486 12.0864 12.0428C14.7864 9.66401 20.3484 10.0195 20.3484 10.0195ZM20.8693 15.9655C20.7682 15.9603 20.6821 16.0381 20.6769 16.1392C20.6718 16.2403 20.7496 16.3264 20.8507 16.3315C21.4161 16.3602 21.8207 16.5223 22.0917 16.7949C22.3629 17.0676 22.5246 17.4754 22.5537 18.0453C22.5588 18.1464 22.6449 18.2241 22.746 18.219C22.8471 18.2138 22.9249 18.1277 22.9197 18.0266C22.8877 17.3986 22.7061 16.8929 22.3517 16.5364C21.9971 16.1798 21.4939 15.9972 20.8693 15.9655ZM20.2007 14.4962C20.2079 14.3953 20.2955 14.3193 20.3965 14.3264C21.6883 14.4184 22.7153 14.846 23.4616 15.6384L23.4617 15.6385C24.2022 16.4255 24.5568 17.4059 24.531 18.5654C24.5288 18.6666 24.4449 18.7468 24.3437 18.7446C24.2425 18.7423 24.1623 18.6585 24.1646 18.5573C24.1884 17.4848 23.8634 16.6003 23.1947 15.8896C22.5255 15.1791 21.5931 14.7791 20.3705 14.6921C20.2695 14.6849 20.1935 14.5972 20.2007 14.4962ZM19.8311 12.7415C19.7299 12.7408 19.6473 12.8223 19.6466 12.9235C19.6459 13.0247 19.7274 13.1073 19.8286 13.108C21.5332 13.1195 22.9483 13.667 24.0864 14.7462C25.2179 15.8192 25.7991 17.293 25.8139 19.1903C25.8147 19.2915 25.8974 19.373 25.9986 19.3722C26.0998 19.3714 26.1812 19.2887 26.1805 19.1875C26.165 17.2116 25.5564 15.635 24.3386 14.4802C23.1274 13.3317 21.6206 12.7536 19.8311 12.7415ZM20.9221 22.1272C20.9221 22.1272 21.3635 22.1634 21.6012 21.8786L22.0646 21.3115C22.2881 21.0303 22.8275 20.851 23.3558 21.1372C23.7516 21.3568 24.1359 21.5955 24.5072 21.8525C24.789 22.0541 25.3083 22.4702 25.5022 22.6256L25.5022 22.6257C25.5495 22.6635 25.5774 22.6859 25.5778 22.6859C25.9198 22.9667 25.9987 23.3791 25.7659 23.8139C25.7659 23.8145 25.7658 23.8153 25.7656 23.8161C25.7654 23.817 25.7652 23.8179 25.7649 23.8187C25.7647 23.8196 25.7645 23.8204 25.7643 23.8212C25.7641 23.8219 25.7641 23.8224 25.7641 23.8229C25.5076 24.2553 25.1821 24.6452 24.7996 24.9781C24.7973 24.9792 24.7962 24.9803 24.7951 24.9815C24.794 24.9825 24.793 24.9836 24.791 24.9846C24.4588 25.2547 24.1323 25.4082 23.8117 25.4451C23.7645 25.4532 23.7165 25.4561 23.6687 25.4538C23.5273 25.4552 23.3866 25.4341 23.2522 25.3915L23.2418 25.3766C22.7478 25.2411 21.9231 24.902 20.5496 24.165C19.7548 23.7435 18.9981 23.2573 18.2877 22.7116C17.9316 22.4383 17.5919 22.1452 17.2704 21.834L17.2361 21.8007L17.2018 21.7673L17.1676 21.734C17.1599 21.7268 17.1523 21.7194 17.1448 21.7119L17.1333 21.7007C16.8133 21.3879 16.5121 21.0575 16.2311 20.7111C15.6701 20.0202 15.1703 19.2843 14.7369 18.5113C13.9792 17.175 13.6305 16.3735 13.4912 15.8923L13.4759 15.8822C13.4323 15.7514 13.4108 15.6146 13.4122 15.4771C13.4096 15.4305 13.4125 15.3839 13.4208 15.3379C13.4608 15.0266 13.6189 14.7088 13.895 14.3846C13.8957 14.3835 13.8963 14.3827 13.8969 14.382C13.8974 14.3815 13.8978 14.3811 13.8982 14.3807C13.8989 14.3801 13.8995 14.3796 13.9001 14.3788C13.9006 14.3781 13.9012 14.3773 13.9017 14.3763C14.2438 14.0043 14.6447 13.6877 15.0893 13.4385C15.0904 13.4385 15.092 13.438 15.0936 13.4375C15.0954 13.437 15.0973 13.4364 15.0986 13.4364C15.5456 13.2099 15.9695 13.2867 16.2579 13.6175C16.2601 13.6197 16.858 14.3179 17.1147 14.6589C17.3789 15.0204 17.6243 15.3946 17.85 15.78C18.1443 16.2934 17.9599 16.8192 17.6708 17.0359L17.0878 17.4866C16.7935 17.7178 16.8323 18.1472 16.8323 18.1472C16.8323 18.1472 17.6958 21.326 20.9221 22.1272Z" fill="#003D59"/>
</svg>
