<svg width="40" height="40" viewBox="0 0 40 40" fill="none" xmlns="http://www.w3.org/2000/svg">
<path fill-rule="evenodd" clip-rule="evenodd" d="M19.9997 36.6673C29.2044 36.6673 36.6663 29.2054 36.6663 20.0007C36.6663 10.7959 29.2044 3.33398 19.9997 3.33398C10.7949 3.33398 3.33301 10.7959 3.33301 20.0007C3.33301 29.2054 10.7949 36.6673 19.9997 36.6673ZM29.6456 26.5544H27.2227C26.5695 26.5544 26.2383 26.1847 25.5073 25.369C25.2116 25.039 24.8506 24.636 24.3763 24.155C22.9413 22.7671 22.3062 22.5789 21.9533 22.5789C21.4593 22.5789 21.3182 22.72 21.3182 23.4022V25.5899C21.3182 26.178 21.13 26.5309 19.5774 26.5309C17.0133 26.5309 14.1669 24.9783 12.1674 22.0849C9.15634 17.8506 8.33301 14.6748 8.33301 14.0162C8.33301 13.6633 8.47415 13.334 9.15634 13.334H11.5793C12.1909 13.334 12.4262 13.6163 12.6614 14.2749C13.8611 17.7329 15.8606 20.7675 16.684 20.7675C16.9898 20.7675 17.1309 20.6264 17.1309 19.8501V16.2745C17.0729 15.2581 16.7191 14.8153 16.4567 14.487C16.294 14.2833 16.1665 14.1237 16.1665 13.8986C16.1665 13.6163 16.4017 13.334 16.7781 13.334H20.5889C21.1065 13.334 21.2947 13.6163 21.2947 14.2279V19.0503C21.2947 19.5678 21.5299 19.756 21.671 19.756C21.9769 19.756 22.2356 19.5678 22.8002 19.0032C24.541 17.0507 25.7877 14.0397 25.7877 14.0397C25.9524 13.6868 26.2347 13.3575 26.8463 13.3575H29.2693C29.9985 13.3575 30.1632 13.7339 29.9985 14.2514C29.6927 15.6628 26.7287 19.8501 26.7287 19.8501C26.4699 20.2735 26.3758 20.4617 26.7287 20.9322C26.8562 21.1061 27.1267 21.3716 27.4358 21.6749C27.7538 21.9869 28.1126 22.339 28.3989 22.673C29.4339 23.8492 30.2337 24.8372 30.4454 25.5194C30.6807 26.2015 30.3278 26.5544 29.6456 26.5544Z" fill="#003D59"/>
</svg>
