<svg width="40" height="40" viewBox="0 0 40 40" fill="none" xmlns="http://www.w3.org/2000/svg">
<g id="brand / whatsapp">
<path id="icon" fill-rule="evenodd" clip-rule="evenodd" d="M36.6663 20.0007C36.6663 29.2054 29.2044 36.6673 19.9997 36.6673C10.7949 36.6673 3.33301 29.2054 3.33301 20.0007C3.33301 10.7959 10.7949 3.33398 19.9997 3.33398C29.2044 3.33398 36.6663 10.7959 36.6663 20.0007ZM20.0415 9.16732C22.7052 9.16842 25.2056 10.2005 27.0857 12.0738C28.9659 13.947 30.0008 16.4368 29.9997 19.085C29.9976 24.5494 25.5299 28.9954 20.0416 28.9954H20.0375C18.3709 28.995 16.7333 28.5788 15.2787 27.7891L9.99967 29.1673L11.4124 24.0318C10.541 22.5289 10.0825 20.8238 10.0832 19.0771C10.0854 13.613 14.5526 9.16732 20.0415 9.16732ZM20.0381 27.3217H20.0415C24.6036 27.3217 28.3164 23.6264 28.3184 19.0844C28.3191 16.8834 27.4591 14.8138 25.8964 13.2568C24.3338 11.6998 22.2556 10.8419 20.0448 10.8411C15.4794 10.8411 11.7663 14.5361 11.7646 19.0777C11.7639 20.6341 12.2014 22.15 13.0299 23.4615L13.2268 23.7732L12.3906 26.8128L15.5233 25.995L15.8254 26.1735C17.0964 26.9239 18.5529 27.3211 20.0381 27.3217ZM22.8813 20.3468C23.1094 20.4295 24.3328 21.0284 24.5815 21.1524C24.6304 21.1768 24.676 21.1987 24.7183 21.2191C24.8914 21.3023 25.0084 21.3586 25.0583 21.4416C25.1206 21.545 25.1206 22.0407 24.9133 22.6192C24.7058 23.1976 23.7119 23.7255 23.2338 23.7967C22.805 23.8604 22.2627 23.887 21.6666 23.6986C21.3051 23.5844 20.8417 23.4322 20.2481 23.1768C17.9156 22.1746 16.3391 19.9246 16.0411 19.4993C16.0202 19.4695 16.0056 19.4487 15.9975 19.4378L15.9953 19.4349C15.8629 19.259 14.9815 18.088 14.9815 16.8762C14.9815 15.7356 15.5443 15.1378 15.8035 14.8626C15.8213 14.8437 15.8376 14.8263 15.8523 14.8104C16.0804 14.5623 16.35 14.5004 16.5158 14.5004C16.6818 14.5004 16.8478 14.5019 16.9927 14.5091C17.0106 14.51 17.0291 14.5099 17.0483 14.5098C17.1934 14.5089 17.3741 14.5079 17.5527 14.9342C17.6208 15.0972 17.7204 15.3385 17.8255 15.5932C18.0401 16.1133 18.278 16.6897 18.3196 16.7729C18.3819 16.8968 18.4235 17.0415 18.3405 17.2067C18.2576 17.3719 17.9878 17.7209 17.7185 18.0538C17.707 18.068 17.6951 18.0821 17.6832 18.0961C17.5812 18.2167 17.4795 18.337 17.6093 18.5592C17.7546 18.807 18.2539 19.6179 18.9935 20.2745C19.7889 20.9805 20.4801 21.2789 20.8304 21.4301C20.8986 21.4595 20.9539 21.4834 20.9945 21.5036C21.2434 21.6276 21.3884 21.6069 21.5336 21.4416C21.6789 21.2764 22.1556 20.7186 22.3216 20.4708C22.4873 20.223 22.6534 20.2641 22.8813 20.3468Z" fill="#003D59"/>
</g>
</svg>
